<?xml version="1.0" encoding="utf-8"?>
<!-- Generator: Adobe Illustrator 28.1.0, SVG Export Plug-In . SVG Version: 6.00 Build 0)  -->
<svg version="1.1" id="Layer_1" xmlns="http://www.w3.org/2000/svg" xmlns:xlink="http://www.w3.org/1999/xlink" x="0px" y="0px"
	 viewBox="0 0 192 192" style="enable-background:new 0 0 192 192;" xml:space="preserve">
<style type="text/css">
	.st0{fill:#222F37;}
	.st1{fill:url(#SVGID_1_);}
</style>
<g>
	<path class="st0" d="M73.5,113.2c-2.2,2.3-14,10.5-16.9,12.3c-2.9,1.7-6,3.1-9.2,4c-3.2,0.9-6.5,1.4-9.8,1.4c-5,0-9.6-0.9-13.9-2.7
		c-4.3-1.8-8.1-4.2-11.3-7.4c-3.2-3.2-5.7-6.9-7.5-11.1c-0.4-0.8-0.6-1.6-0.9-2.4l-1-3.7c-0.2-0.7-0.3-1.4-0.4-2.1
		c-0.3-1.8-0.1-3.6,0.5-5.2l0.4-1.4c4.2-13,16.1-21.7,29.6-21.9c-2.4,0.6-4.7,1.6-6.9,2.8c-0.3,0.2-0.5,0.3-0.8,0.5
		c-1.2,0.8-2.3,1.7-3.3,2.8c-2.1,2.2-3.7,4.7-4.9,7.5c-1.2,2.8-1.8,6-1.8,9.2c0,3.3,0.6,6.4,1.8,9.3c1.2,2.9,2.8,5.4,4.9,7.5
		c2.1,2.2,4.6,3.8,7.3,5.1c2.7,1.2,5.7,1.8,8.9,1.8c3.3,0,6.6-0.7,9.8-2.2c3.2-1.4,18.9-11.4,21.5-13.9L73.5,113.2z"/>
	<g>
		<path class="st0" d="M64.3,72.1L56.7,81c-4.1-4-9.2-7-14.9-8.5h0c-2.6-0.7-5.4-1.1-8.2-1.1c-14.6,0-27.1,9.6-31.3,22.8
			C2.4,90,3.3,86,4.9,82.3c1.8-4.2,4.4-7.8,7.7-11c3.3-3.1,7.1-5.6,11.4-7.4c4.3-1.8,9-2.6,14.1-2.6c3.3,0,6.5,0.5,9.6,1.3
			c3.1,0.9,6.1,2.1,9,3.7C59.6,67.9,62.1,69.8,64.3,72.1z"/>
	</g>
	
		<linearGradient id="SVGID_1_" gradientUnits="userSpaceOnUse" x1="77.1254" y1="235.745" x2="55.2393" y2="251.8279" gradientTransform="matrix(1 0 0 1 0 -133.3782)">
		<stop  offset="2.350000e-02" style="stop-color:#101417"/>
		<stop  offset="0.9946" style="stop-color:#252F36"/>
	</linearGradient>
	<path class="st1" d="M73.5,113.2c-2.2,2.3-14,10.5-16.9,12.3c-2.9,1.7-6,3.1-9.2,4c-2.8,0.8-5.6,1.3-8.4,1.4l4.2-11.9
		c1.7-0.4,3.4-0.9,5-1.7c3.2-1.4,18.9-11.4,21.5-13.9L73.5,113.2z"/>
	<path class="st0" d="M189.8,110.7c0,4.2-1.1,7.8-3.4,10.8c-2.2,3-5.3,5.3-9.3,6.9c-3.9,1.6-8.4,2.4-13.3,2.4
		c-3.6,0-7.2-0.5-10.6-1.4c-1.4-0.3-2.8-0.8-4.1-1.3c-1.7-0.6-4.3-1.9-5.8-2.9l-1.5-0.9c-2.5-1.3-5.4-2.1-8.5-2.1
		c-3.1,0-5.9,0.4-8.5,2.1l-1.8,1.1c-2.9,1.7-6,3.1-9.2,4c-3.2,0.9-6.5,1.4-9.8,1.4c-5,0-9.6-0.9-13.9-2.7c-4.3-1.8-8.1-4.2-11.3-7.4
		h0c-0.8-0.8-1.5-1.6-2.2-2.5c-0.7-0.8-1.3-1.6-1.9-2.5c-0.1-0.1-0.2-0.3-0.3-0.4c-0.3-0.4-0.6-0.9-0.8-1.3
		c-0.2-0.2-0.3-0.4-0.4-0.7c-0.1-0.2-0.2-0.4-0.3-0.7c-0.6-1-1.1-2-1.5-3.1c-0.2-0.4-0.3-0.7-0.4-1c-0.2-0.5-0.3-0.9-0.5-1.4l-1-3.7
		c0-0.1,0.1-0.1,0.1-0.1c0,0,0,0,0-0.1c-0.2-0.6-0.3-1.3-0.4-2c-0.3-1.8-0.1-3.6,0.5-5.3l0.4-1.3c4.2-13,16.1-21.7,29.6-21.9
		c-2.4,0.6-4.7,1.6-6.9,2.8c-0.3,0.2-0.5,0.3-0.8,0.5c-0.6,0.4-1.2,0.8-1.7,1.3c-0.6,0.4-1.1,1-1.6,1.5c-0.5,0.5-1,1.1-1.5,1.7
		c-1.4,1.8-2.5,3.7-3.4,5.9c-0.6,1.6-1.1,3.3-1.4,5c-0.1,0.6-0.2,1.2-0.2,1.8c-0.1,0.8-0.1,1.6-0.1,2.4c0,0.8,0,1.7,0.1,2.4
		c0.1,0.6,0.2,1.2,0.2,1.8c0.3,1.8,0.8,3.5,1.4,5.1c0.9,2.2,2,4.1,3.4,5.9c0.5,0.6,1,1.1,1.5,1.6c2.1,2.2,4.6,3.8,7.3,5.1
		c2.7,1.2,5.7,1.8,8.9,1.8c3.3,0,6.6-0.7,9.8-2.2c0.2-0.1,0.4-0.2,0.7-0.4c2-0.9,5.5-2.6,9-4.7c4.5-2.7,9.8-3.2,14.6-1.6
		c1,0.3,2,0.7,2.9,1.2c2.6,1.4,5.1,2.4,6.3,3.1c2.8,1.5,5.4,2.7,8.2,3.5c2.7,0.8,5.3,1.2,7.7,1.2c3.7,0,6.6-0.7,8.6-2.2
		c2-1.4,3.1-3.4,3.1-6c0-2.2-0.6-3.8-2-5.2c-1.3-1.3-3-2.4-5.2-3.2c-2.1-0.9-4.5-1.6-7.1-2.3c-2.6-0.7-5.2-1.5-7.8-2.4
		c-2.6-0.9-5-2.2-7.1-3.6c-2.1-1.4-3.9-3.3-5.2-5.6c-1.3-2.3-2-5.1-2-8.6c0-3.9,1.1-7.4,3.2-10.2c2.1-2.9,5.1-5.1,8.9-6.7
		c4.3-1.8,9.5-2.6,15.6-2.3c3.7,0.1,7.2,0.8,10.7,1.8c4.4,1.3,8.3,3,11.5,5.2l-7.8,9.2c-1.6-0.8-3.2-1.6-4.8-2.2
		c-2.5-0.9-4.8-1.7-7-2.1c-2.2-0.4-4.2-0.6-6-0.6c-3,0-5.4,0.6-7.3,1.8c-1.8,1.2-2.8,2.8-2.8,5.1c0,2.1,0.7,3.8,2,5.1
		c1.3,1.3,3.1,2.4,5.2,3.2c2.2,0.9,4.6,1.7,7.1,2.4c2.6,0.7,5.1,1.6,7.8,2.6c2.5,0.9,4.9,2.1,7.1,3.6c2.2,1.5,3.9,3.4,5.2,5.7
		C189.2,104.3,189.8,107.2,189.8,110.7z"/>
	<g>
		<path class="st0" d="M130.7,72.1l-7.6,8.9c-4.1-4-9.2-7-14.9-8.5h0c-2.6-0.7-5.4-1.1-8.2-1.1c-14.6,0-27.1,9.6-31.3,22.8
			c0.2-4.3,1.1-8.3,2.7-12.1c1.8-4.2,4.4-7.8,7.7-11c3.3-3.1,7.1-5.6,11.4-7.4c4.3-1.8,9-2.6,14.1-2.6c3.3,0,6.5,0.5,9.6,1.3
			c3.1,0.9,6.1,2.1,9,3.7C126,67.9,128.5,69.8,130.7,72.1z"/>
	</g>
</g>
</svg>
