<?xml version="1.0" encoding="utf-8"?>
<!-- Generator: Adobe Illustrator 28.1.0, SVG Export Plug-In . SVG Version: 6.00 Build 0)  -->
<svg version="1.1" id="Layer_1" xmlns="http://www.w3.org/2000/svg" xmlns:xlink="http://www.w3.org/1999/xlink" x="0px" y="0px"
	 viewBox="0 0 512 512" style="enable-background:new 0 0 512 512;" xml:space="preserve">
<style type="text/css">
	.st0{fill:#222F37;}
	.st1{fill:url(#SVGID_1_);}
</style>
<g>
	<path class="st0" d="M196.3,301.5c-6,6.2-37.1,27.9-44.9,32.5c-7.7,4.6-15.9,8.1-24.4,10.6c-8.4,2.5-17.1,3.7-25.9,3.7
		c-13.2,0-25.5-2.3-36.8-7.1C52.9,336.6,43,330,34.6,321.7c-8.5-8.5-15.1-18.3-19.9-29.5c-1-2.2-1.7-4.3-2.5-6.5l-2.6-9.8
		c-0.4-1.9-0.8-3.7-1.1-5.6c-0.7-4.6-0.2-9.4,1.2-13.9l1.2-3.6c11.1-34.4,42.6-57.5,78.5-58c-6.4,1.7-12.5,4.2-18.3,7.5
		c-0.7,0.5-1.4,0.9-2.1,1.3c-3.2,2.2-6.1,4.6-8.8,7.4c-5.5,5.8-9.8,12.4-12.9,20c-3.1,7.5-4.7,15.8-4.7,24.4c0,8.8,1.6,17,4.7,24.6
		c3.1,7.7,7.4,14.2,12.9,19.8c5.6,5.7,12.1,10.2,19.3,13.5c7.3,3.2,15.1,4.9,23.5,4.9c8.7,0,17.4-2,26-5.8
		c8.6-3.8,50.2-30.3,56.9-36.9L196.3,301.5z"/>
	<g>
		<path class="st0" d="M172,192.6l-20.1,23.7c-10.8-10.7-24.4-18.5-39.5-22.4h-0.1c-7-1.9-14.2-2.8-21.7-2.8
			c-38.8,0-71.7,25.4-83.1,60.5c0.5-11.4,2.9-22,7.2-32c4.8-11,11.5-20.7,20.3-29.2c8.8-8.3,18.8-14.9,30.2-19.5
			c11.4-4.7,23.9-7,37.4-7c8.8,0,17.2,1.2,25.6,3.5c8.3,2.3,16.2,5.6,23.8,9.8C159.4,181.5,166.1,186.7,172,192.6z"/>
	</g>
	
		<linearGradient id="SVGID_1_" gradientUnits="userSpaceOnUse" x1="205.9772" y1="406.252" x2="147.9728" y2="448.8762" gradientTransform="matrix(1 0 0 1 0 -133.3782)">
		<stop  offset="2.350000e-02" style="stop-color:#101417"/>
		<stop  offset="0.9946" style="stop-color:#252F36"/>
	</linearGradient>
	<path class="st1" d="M196.3,301.5c-6,6.2-37.1,27.9-44.9,32.5c-7.7,4.6-15.9,8.1-24.4,10.6c-7.3,2.1-14.8,3.3-22.3,3.6l11-31.6
		c4.4-0.9,8.9-2.5,13.3-4.4c8.6-3.8,50.2-30.3,56.9-36.9L196.3,301.5z"/>
	<path class="st0" d="M504.5,294.9c0,11.2-3,20.8-9,28.6c-6,7.8-14.1,13.9-24.6,18.2c-10.4,4.3-22.2,6.5-35.3,6.5
		c-9.6,0-19-1.3-28.2-3.8c-3.7-0.9-7.3-2.1-10.8-3.4c-4.4-1.6-11.4-5.1-15.4-7.6l-3.9-2.4c-6.7-3.6-14.3-5.7-22.5-5.7
		c-8.2,0-15.6,0.9-22.5,5.7l-4.7,3c-7.8,4.6-15.9,8.1-24.4,10.6c-8.4,2.5-17.1,3.7-25.9,3.7c-13.2,0-25.5-2.3-36.9-7.1
		c-11.4-4.6-21.4-11.2-29.8-19.6h-0.1c-2.1-2.1-4.1-4.3-5.9-6.6c-1.8-2.2-3.5-4.3-5-6.7c-0.3-0.3-0.5-0.7-0.8-1.1
		c-0.8-1.1-1.5-2.3-2.2-3.5c-0.4-0.6-0.7-1.2-1.1-1.8c-0.3-0.6-0.6-1.2-0.9-1.8c-1.5-2.6-2.9-5.3-4-8.1c-0.4-0.9-0.7-1.9-1-2.7
		c-0.5-1.2-0.9-2.5-1.4-3.7l-2.7-9.8c0-0.1,0.1-0.1,0.1-0.2c0-0.1,0-0.1,0-0.2c-0.4-1.7-0.8-3.5-1-5.3c-0.7-4.7-0.2-9.6,1.2-14.1
		l1.1-3.4c11.1-34.4,42.6-57.6,78.6-58c-6.4,1.6-12.5,4.2-18.4,7.5c-0.7,0.5-1.4,0.9-2.1,1.3c-1.5,1.1-3.1,2.2-4.4,3.4
		c-1.5,1.2-2.9,2.6-4.3,4c-1.4,1.4-2.7,3-4,4.4c-3.7,4.7-6.7,9.9-9,15.5c-1.7,4.3-3,8.7-3.7,13.3c-0.2,1.5-0.4,3.1-0.6,4.7
		c-0.2,2.1-0.3,4.2-0.3,6.4s0.1,4.4,0.3,6.5c0.2,1.6,0.4,3.2,0.6,4.7c0.8,4.6,2.1,9.1,3.7,13.5c2.3,5.8,5.3,10.8,9,15.5
		c1.3,1.5,2.6,3,4,4.3c5.6,5.7,12.1,10.2,19.3,13.5c7.3,3.2,15.1,4.9,23.5,4.9c8.7,0,17.4-2,26-5.8c0.5-0.2,1.2-0.6,2-1
		c5.2-2.4,14.6-7,23.8-12.5c11.8-7.1,26-8.6,38.8-4.3c2.6,0.8,5.2,1.9,7.7,3.2c7,3.7,13.6,6.4,16.6,8.1c7.3,4.1,14.4,7.1,21.8,9.4
		c7.3,2.1,14,3.2,20.4,3.2c9.8,0,17.4-1.9,22.8-5.7c5.4-3.7,8.1-9,8.1-15.9c0-5.7-1.7-10.2-5.3-13.7c-3.5-3.4-8-6.3-13.7-8.6
		c-5.7-2.3-11.9-4.3-18.9-6.1c-7-1.9-13.8-4-20.7-6.5c-6.8-2.5-13.2-5.7-18.9-9.6c-5.7-3.8-10.4-8.7-13.9-14.7
		c-3.6-6.1-5.2-13.6-5.2-22.9c0-10.4,2.8-19.5,8.4-27c5.7-7.7,13.6-13.6,23.6-17.8c11.4-4.7,25.3-6.8,41.3-6.1
		c9.7,0.4,19.2,2.1,28.5,4.9c11.6,3.4,21.9,8,30.6,13.8l-20.7,24.3c-4.2-2.2-8.4-4.2-12.7-5.9c-6.6-2.5-12.7-4.4-18.6-5.5
		c-5.8-1.1-11.1-1.7-15.9-1.7c-8,0-14.4,1.5-19.4,4.7c-4.9,3.1-7.4,7.5-7.4,13.6c0,5.5,1.8,10,5.3,13.4c3.5,3.4,8.1,6.3,13.9,8.4
		c5.8,2.3,12.1,4.4,18.9,6.5c6.9,2,13.6,4.3,20.6,6.8c6.7,2.5,13,5.7,18.8,9.7c5.8,4,10.4,9,13.7,15.2
		C502.9,278,504.5,285.7,504.5,294.9z"/>
	<g>
		<path class="st0" d="M348.1,192.6L328,216.3c-10.8-10.7-24.4-18.5-39.5-22.4h-0.1c-7-1.9-14.2-2.8-21.7-2.8
			c-38.8,0-71.7,25.4-83.1,60.5c0.5-11.4,2.9-22,7.2-32c4.8-11,11.5-20.7,20.3-29.2c8.8-8.3,18.8-14.9,30.2-19.5
			c11.4-4.7,23.9-7,37.4-7c8.8,0,17.2,1.2,25.6,3.5c8.3,2.3,16.2,5.6,23.8,9.8C335.5,181.5,342.2,186.7,348.1,192.6z"/>
	</g>
</g>
</svg>
