<?xml version="1.0" encoding="utf-8"?>
<!-- Generator: Adobe Illustrator 28.1.0, SVG Export Plug-In . SVG Version: 6.00 Build 0)  -->
<svg version="1.1" id="Layer_1" xmlns="http://www.w3.org/2000/svg" xmlns:xlink="http://www.w3.org/1999/xlink" x="0px" y="0px"
	 viewBox="0 0 180 180" style="enable-background:new 0 0 180 180;" xml:space="preserve">
<style type="text/css">
	.st0{fill:#222F37;}
	.st1{fill:url(#SVGID_1_);}
</style>
<g>
	<path class="st0" d="M70,105.3c-2,2.1-12.5,9.4-15.1,10.9c-2.6,1.5-5.3,2.7-8.2,3.6c-2.8,0.8-5.8,1.2-8.7,1.2
		c-4.4,0-8.6-0.8-12.4-2.4c-3.9-1.6-7.2-3.8-10-6.6c-2.9-2.9-5.1-6.1-6.7-9.9c-0.3-0.7-0.6-1.4-0.8-2.2l-0.9-3.3
		c-0.1-0.6-0.3-1.3-0.4-1.9c-0.2-1.6-0.1-3.2,0.4-4.7l0.4-1.2C11.4,77.4,21.9,69.6,34,69.4c-2.2,0.6-4.2,1.4-6.1,2.5
		c-0.2,0.2-0.5,0.3-0.7,0.4c-1.1,0.7-2,1.5-3,2.5c-1.9,1.9-3.3,4.2-4.3,6.7c-1,2.5-1.6,5.3-1.6,8.2c0,3,0.5,5.7,1.6,8.3
		c1,2.6,2.5,4.8,4.3,6.7c1.9,1.9,4.1,3.4,6.5,4.5c2.4,1.1,5.1,1.6,7.9,1.6c2.9,0,5.9-0.7,8.7-2c2.9-1.3,16.9-10.2,19.1-12.4
		L70,105.3z"/>
	<g>
		<path class="st0" d="M61.8,68.7l-6.7,8c-3.6-3.6-8.2-6.2-13.3-7.5h0c-2.3-0.6-4.8-0.9-7.3-0.9c-13,0-24.1,8.5-27.9,20.3
			c0.2-3.8,1-7.4,2.4-10.7c1.6-3.7,3.9-6.9,6.8-9.8c2.9-2.8,6.3-5,10.1-6.6c3.8-1.6,8-2.3,12.6-2.3c2.9,0,5.8,0.4,8.6,1.2
			c2.8,0.8,5.4,1.9,8,3.3C57.6,65,59.8,66.7,61.8,68.7z"/>
	</g>
	
		<linearGradient id="SVGID_1_" gradientUnits="userSpaceOnUse" x1="73.1953" y1="229.0468" x2="53.7092" y2="243.366" gradientTransform="matrix(1 0 0 1 0 -133.3782)">
		<stop  offset="2.350000e-02" style="stop-color:#101417"/>
		<stop  offset="0.9946" style="stop-color:#252F36"/>
	</linearGradient>
	<path class="st1" d="M70,105.3c-2,2.1-12.5,9.4-15.1,10.9c-2.6,1.5-5.3,2.7-8.2,3.6c-2.5,0.7-5,1.1-7.5,1.2l3.7-10.6
		c1.5-0.3,3-0.8,4.5-1.5c2.9-1.3,16.9-10.2,19.1-12.4L70,105.3z"/>
	<path class="st0" d="M173.5,103.1c0,3.8-1,7-3,9.6c-2,2.6-4.7,4.7-8.2,6.1c-3.5,1.4-7.4,2.2-11.9,2.2c-3.2,0-6.4-0.4-9.5-1.3
		c-1.2-0.3-2.5-0.7-3.6-1.1c-1.5-0.6-3.8-1.7-5.2-2.5l-1.3-0.8c-2.2-1.2-4.8-1.9-7.5-1.9c-2.8,0-5.2,0.3-7.6,1.9l-1.6,1
		c-2.6,1.5-5.3,2.7-8.2,3.6c-2.8,0.8-5.8,1.2-8.7,1.2c-4.4,0-8.6-0.8-12.4-2.4c-3.8-1.6-7.2-3.8-10-6.6h0c-0.7-0.7-1.4-1.4-2-2.2
		c-0.6-0.7-1.2-1.5-1.7-2.2c-0.1-0.1-0.2-0.2-0.3-0.4c-0.3-0.4-0.5-0.8-0.7-1.2c-0.1-0.2-0.2-0.4-0.4-0.6c-0.1-0.2-0.2-0.4-0.3-0.6
		c-0.5-0.9-1-1.8-1.4-2.7c-0.1-0.3-0.2-0.6-0.3-0.9c-0.2-0.4-0.3-0.8-0.5-1.3l-0.9-3.3c0,0,0,0,0-0.1c0,0,0,0,0-0.1
		c-0.1-0.6-0.3-1.2-0.4-1.8c-0.2-1.6-0.1-3.2,0.4-4.7l0.4-1.2c3.7-11.5,14.3-19.3,26.4-19.5C91,70,89,70.8,87,71.9
		c-0.2,0.2-0.5,0.3-0.7,0.4c-0.5,0.4-1,0.7-1.5,1.1c-0.5,0.4-1,0.9-1.4,1.3c-0.5,0.5-0.9,1-1.3,1.5c-1.2,1.6-2.2,3.3-3,5.2
		c-0.6,1.4-1,2.9-1.3,4.5c-0.1,0.5-0.1,1-0.2,1.6c-0.1,0.7-0.1,1.4-0.1,2.1c0,0.7,0,1.5,0.1,2.2c0.1,0.5,0.1,1.1,0.2,1.6
		c0.3,1.6,0.7,3.1,1.3,4.5c0.8,1.9,1.8,3.6,3,5.2c0.4,0.5,0.9,1,1.3,1.5c1.9,1.9,4.1,3.4,6.5,4.5c2.4,1.1,5.1,1.6,7.9,1.6
		c2.9,0,5.9-0.7,8.7-2c0.2-0.1,0.4-0.2,0.7-0.3c1.7-0.8,4.9-2.3,8-4.2c4-2.4,8.7-2.9,13-1.4c0.9,0.3,1.7,0.6,2.6,1.1
		c2.3,1.3,4.6,2.2,5.6,2.7c2.5,1.4,4.8,2.4,7.3,3.1c2.4,0.7,4.7,1.1,6.8,1.1c3.3,0,5.9-0.6,7.7-1.9c1.8-1.3,2.7-3,2.7-5.3
		c0-1.9-0.6-3.4-1.8-4.6c-1.2-1.1-2.7-2.1-4.6-2.9c-1.9-0.8-4-1.4-6.4-2c-2.3-0.6-4.6-1.3-6.9-2.2c-2.3-0.8-4.4-1.9-6.4-3.2
		c-1.9-1.3-3.5-2.9-4.7-4.9c-1.2-2-1.8-4.6-1.8-7.7c0-3.5,0.9-6.6,2.8-9.1c1.9-2.6,4.6-4.6,7.9-6c3.8-1.6,8.5-2.3,13.9-2.1
		c3.3,0.1,6.5,0.7,9.6,1.6c3.9,1.1,7.4,2.7,10.3,4.6l-6.9,8.2c-1.4-0.7-2.8-1.4-4.3-2c-2.2-0.8-4.3-1.5-6.2-1.8
		c-1.9-0.4-3.7-0.6-5.3-0.6c-2.7,0-4.8,0.5-6.5,1.6c-1.6,1-2.5,2.5-2.5,4.6c0,1.9,0.6,3.4,1.8,4.5c1.2,1.1,2.7,2.1,4.7,2.8
		c1.9,0.8,4.1,1.5,6.4,2.2c2.3,0.7,4.6,1.4,6.9,2.3c2.3,0.8,4.4,1.9,6.3,3.2c1.9,1.3,3.5,3,4.6,5.1
		C172.9,97.4,173.5,100,173.5,103.1z"/>
	<g>
		<path class="st0" d="M120.9,68.7l-6.7,8c-3.6-3.6-8.2-6.2-13.3-7.5h0c-2.3-0.6-4.8-0.9-7.3-0.9c-13,0-24.1,8.5-27.9,20.3
			c0.2-3.8,1-7.4,2.4-10.7c1.6-3.7,3.9-6.9,6.8-9.8c2.9-2.8,6.3-5,10.1-6.6c3.8-1.6,8-2.3,12.6-2.3c2.9,0,5.8,0.4,8.6,1.2
			c2.8,0.8,5.4,1.9,8,3.3C116.7,65,119,66.7,120.9,68.7z"/>
	</g>
</g>
</svg>
