<?xml version="1.0" encoding="utf-8"?>
<!-- Generator: Adobe Illustrator 28.0.0, SVG Export Plug-In . SVG Version: 6.00 Build 0)  -->
<svg version="1.1" id="Layer_1" xmlns="http://www.w3.org/2000/svg" xmlns:xlink="http://www.w3.org/1999/xlink" x="0px" y="0px"
	 viewBox="0 0 150.79 57.34" style="enable-background:new 0 0 150.79 57.34;" xml:space="preserve">
<style type="text/css">
	.st0{fill:#222F37;}
	.st1{fill:url(#SVGID_1_);}
</style>
<g>
	<path class="st0" d="M57.66,42.2c-1.77,1.84-11.03,8.29-13.34,9.67c-2.3,1.36-4.73,2.42-7.25,3.16c-2.51,0.74-5.09,1.09-7.69,1.09
		c-3.91,0-7.58-0.67-10.94-2.1c-3.41-1.38-6.36-3.34-8.87-5.82c-2.53-2.53-4.5-5.44-5.92-8.78c-0.3-0.65-0.51-1.27-0.74-1.93
		l-0.78-2.9C2,34.04,1.9,33.48,1.81,32.92c-0.21-1.38-0.07-2.8,0.36-4.13l0.35-1.08c3.31-10.22,12.65-17.09,23.35-17.25
		c-1.91,0.5-3.73,1.26-5.44,2.24c-0.21,0.14-0.42,0.27-0.62,0.39c-0.96,0.65-1.8,1.36-2.62,2.19c-1.64,1.72-2.91,3.69-3.83,5.94
		c-0.92,2.24-1.4,4.69-1.4,7.25c0,2.62,0.48,5.05,1.4,7.32c0.92,2.28,2.19,4.23,3.83,5.9c1.66,1.7,3.59,3.02,5.74,4
		c2.16,0.96,4.5,1.45,6.98,1.45c2.6,0,5.18-0.58,7.72-1.73c2.55-1.13,14.93-9,16.91-10.97L57.66,42.2z"/>
	<g>
		<path class="st0" d="M50.41,9.83l-5.97,7.04c-3.22-3.17-7.25-5.5-11.75-6.66h-0.03c-2.07-0.56-4.23-0.83-6.45-0.83
			c-11.54,0-21.33,7.55-24.7,17.99c0.15-3.4,0.86-6.54,2.13-9.5c1.42-3.28,3.43-6.15,6.03-8.67c2.61-2.48,5.59-4.44,8.97-5.8
			c3.4-1.39,7.1-2.07,11.12-2.07c2.61,0,5.11,0.36,7.6,1.03c2.48,0.68,4.82,1.66,7.07,2.9C46.69,6.52,48.67,8.06,50.41,9.83z"/>
	</g>
	
		<linearGradient id="SVGID_1_" gradientUnits="userSpaceOnUse" x1="60.5246" y1="24.9345" x2="43.2807" y2="12.2629" gradientTransform="matrix(1 0 0 -1 0 58.6218)">
		<stop  offset="0.0235" style="stop-color:#101417"/>
		<stop  offset="0.9946" style="stop-color:#252F36"/>
	</linearGradient>
	<path class="st1" d="M57.66,42.2c-1.77,1.84-11.03,8.29-13.34,9.67c-2.3,1.36-4.73,2.42-7.25,3.16c-2.18,0.63-4.4,0.99-6.64,1.08
		l3.27-9.4c1.32-0.28,2.64-0.73,3.94-1.31c2.55-1.13,14.93-9,16.91-10.97L57.66,42.2z"/>
	<path class="st0" d="M149.28,40.24c0,3.33-0.88,6.17-2.67,8.5c-1.77,2.33-4.19,4.14-7.3,5.4c-3.08,1.27-6.59,1.93-10.5,1.93
		c-2.85,0-5.65-0.39-8.38-1.13c-1.1-0.27-2.17-0.62-3.22-1c-1.32-0.49-3.39-1.51-4.59-2.25l-1.15-0.71
		c-1.98-1.06-4.26-1.68-6.68-1.68c-2.44,0-4.63,0.28-6.7,1.68l-1.41,0.88c-2.32,1.36-4.73,2.42-7.25,3.16
		c-2.51,0.74-5.09,1.09-7.69,1.09c-3.91,0-7.58-0.67-10.96-2.1c-3.39-1.38-6.36-3.34-8.87-5.82h-0.02
		c-0.63-0.62-1.22-1.27-1.75-1.96c-0.53-0.65-1.04-1.29-1.49-1.98c-0.09-0.09-0.14-0.21-0.23-0.32c-0.25-0.34-0.44-0.69-0.65-1.04
		c-0.12-0.18-0.21-0.35-0.34-0.53c-0.09-0.18-0.19-0.35-0.27-0.53c-0.44-0.78-0.85-1.57-1.2-2.42c-0.12-0.28-0.21-0.55-0.3-0.81
		c-0.14-0.37-0.27-0.73-0.41-1.11l-0.81-2.9c0-0.04,0.04-0.04,0.04-0.07c0-0.02,0-0.02,0-0.05c-0.13-0.51-0.23-1.04-0.31-1.57
		c-0.22-1.4-0.07-2.84,0.37-4.18l0.33-1.02c3.29-10.22,12.65-17.11,23.36-17.25c-1.91,0.48-3.73,1.26-5.46,2.24
		c-0.21,0.14-0.42,0.27-0.63,0.39c-0.46,0.32-0.92,0.65-1.32,1.01c-0.44,0.35-0.86,0.76-1.27,1.18c-0.41,0.41-0.8,0.88-1.18,1.32
		c-1.09,1.4-1.98,2.93-2.67,4.61c-0.5,1.27-0.88,2.58-1.11,3.96c-0.05,0.46-0.12,0.92-0.18,1.4c-0.07,0.62-0.09,1.24-0.09,1.89
		s0.02,1.31,0.09,1.93c0.05,0.48,0.12,0.96,0.18,1.4c0.23,1.38,0.62,2.72,1.11,4c0.69,1.72,1.57,3.22,2.67,4.61
		c0.39,0.44,0.78,0.88,1.18,1.29c1.66,1.7,3.59,3.02,5.74,4c2.16,0.96,4.49,1.45,6.98,1.45c2.6,0,5.18-0.58,7.72-1.73
		c0.14-0.07,0.35-0.18,0.58-0.3c1.54-0.71,4.35-2.07,7.07-3.73c3.52-2.1,7.72-2.55,11.54-1.27c0.78,0.23,1.54,0.57,2.28,0.96
		c2.07,1.11,4.03,1.91,4.93,2.42c2.18,1.22,4.29,2.12,6.49,2.78c2.16,0.62,4.17,0.96,6.06,0.96c2.9,0,5.18-0.57,6.77-1.7
		c1.61-1.11,2.41-2.68,2.41-4.72c0-1.7-0.5-3.02-1.57-4.06c-1.03-1.01-2.39-1.86-4.08-2.56c-1.68-0.69-3.55-1.27-5.62-1.8
		c-2.07-0.57-4.1-1.18-6.15-1.93c-2.03-0.74-3.91-1.7-5.62-2.85c-1.68-1.13-3.08-2.6-4.12-4.38c-1.06-1.8-1.55-4.04-1.55-6.8
		c0-3.1,0.83-5.8,2.51-8.04c1.68-2.28,4.03-4.03,7.01-5.3c3.39-1.41,7.51-2.03,12.27-1.82c2.88,0.11,5.71,0.62,8.46,1.45
		c3.46,1.01,6.51,2.37,9.09,4.1l-6.15,7.23c-1.26-0.65-2.49-1.26-3.77-1.75c-1.95-0.74-3.78-1.31-5.53-1.63
		c-1.72-0.32-3.31-0.51-4.73-0.51c-2.39,0-4.27,0.46-5.76,1.4c-1.45,0.92-2.19,2.24-2.19,4.04c0,1.64,0.53,2.97,1.59,3.98
		c1.04,1.01,2.41,1.86,4.12,2.51c1.72,0.69,3.59,1.31,5.62,1.93c2.05,0.58,4.04,1.27,6.13,2.01c2,0.73,3.87,1.68,5.59,2.87
		c1.72,1.18,3.08,2.67,4.08,4.52C148.79,35.22,149.28,37.5,149.28,40.24z"/>
	<g>
		<path class="st0" d="M102.77,9.83l-5.97,7.04c-3.22-3.17-7.25-5.5-11.75-6.66h-0.03c-2.07-0.56-4.23-0.83-6.45-0.83
			c-11.54,0-21.33,7.55-24.7,17.99c0.15-3.4,0.86-6.54,2.13-9.5c1.42-3.28,3.43-6.15,6.03-8.67c2.61-2.48,5.59-4.44,8.97-5.8
			c3.4-1.39,7.1-2.07,11.12-2.07c2.61,0,5.11,0.36,7.6,1.03c2.48,0.68,4.82,1.66,7.07,2.9C99.04,6.52,101.02,8.06,102.77,9.83z"/>
	</g>
</g>
</svg>
