<?xml version="1.0" encoding="utf-8"?>
<!-- Generator: Adobe Illustrator 28.0.0, SVG Export Plug-In . SVG Version: 6.00 Build 0)  -->
<svg version="1.1" id="Layer_1" xmlns="http://www.w3.org/2000/svg" xmlns:xlink="http://www.w3.org/1999/xlink" x="0px" y="0px"
	 viewBox="0 0 556.59 105.99" style="enable-background:new 0 0 556.59 105.99;" xml:space="preserve">
<style type="text/css">
	.st0{fill:#222F37;}
	.st1{fill:url(#SVGID_1_);}
</style>
<g>
	<rect x="276.35" y="6.21" class="st0" width="2.19" height="90.77"/>
	<g>
		<g>
			<g>
				<path class="st0" d="M314.07,39.83c0.16,0,0.24,0.07,0.24,0.22v1.71c0,0.16-0.08,0.24-0.24,0.24c-1.48,0-2.57-0.35-3.28-1.04
					c-1.62,0.84-3.08,1.25-4.36,1.25c-1.62,0-2.95-0.55-3.99-1.66c-1.04-1.11-1.55-2.48-1.55-4.12c0-1.67,0.52-3.09,1.57-4.27
					c1.04-1.17,2.37-1.76,3.98-1.76c0.98,0,2.06,0.23,3.23,0.67v-1.49l2.02-0.34l0.02,7.88c0,0.96,0.18,1.65,0.55,2.07
					C312.63,39.62,313.23,39.83,314.07,39.83z M306.26,26.39l-1.76,1.73l-1.76-1.73l1.76-1.74L306.26,26.39z M306.43,40.15
					c1.08,0.02,2.23-0.26,3.47-0.82c-0.16-0.55-0.24-1.21-0.24-2v-4.19c-1.3-0.43-2.35-0.65-3.16-0.65c-1.08,0-1.96,0.38-2.64,1.13
					c-0.68,0.76-1.02,1.69-1.02,2.8c0,1.06,0.33,1.94,1,2.65C304.5,39.77,305.37,40.13,306.43,40.15z M310.09,26.39l-1.76,1.73
					l-1.78-1.73l1.78-1.74L310.09,26.39z"/>
				<path class="st0" d="M318.74,39.83c0.16,0,0.24,0.07,0.24,0.22v1.71c0,0.16-0.08,0.24-0.24,0.24h-4.68
					c-0.16,0-0.24-0.08-0.24-0.24v-1.71c0-0.14,0.08-0.22,0.24-0.22H318.74z"/>
				<path class="st0" d="M323.42,39.83c0.16,0,0.24,0.07,0.24,0.22v1.71c0,0.16-0.08,0.24-0.24,0.24h-4.68
					c-0.16,0-0.24-0.08-0.24-0.24v-1.71c0-0.14,0.08-0.22,0.24-0.22H323.42z"/>
				<path class="st0" d="M331.23,39.83c0.16,0,0.24,0.07,0.24,0.22v1.71c0,0.16-0.08,0.24-0.24,0.24c-1.94,0-3.33-0.52-4.15-1.57
					c-1.11,1.04-2.33,1.57-3.66,1.57c-0.16,0-0.24-0.08-0.24-0.24v-1.71c0-0.14,0.08-0.22,0.24-0.22c1.16,0,2.13-0.34,2.92-1.01
					c-0.11-0.45-0.17-1-0.17-1.64V24.72l2.05-0.31V36.7C328.21,38.79,329.22,39.83,331.23,39.83z"/>
				<path class="st0" d="M337.83,30.31c1.54,0,2.84,0.53,3.88,1.58c1.04,1.05,1.57,2.37,1.57,3.94c0,1.93-0.6,3.44-1.8,4.53
					c-1.2,1.09-2.85,1.64-4.95,1.64h-5.28c-0.16,0-0.24-0.08-0.24-0.24v-1.71c0-0.14,0.08-0.22,0.24-0.22h2.07
					c-0.72-1.49-1.08-2.8-1.08-3.9c0-1.62,0.53-2.96,1.58-4.02C334.87,30.84,336.2,30.31,337.83,30.31z M336.69,39.83
					c1.38,0,2.48-0.35,3.3-1.04s1.23-1.65,1.23-2.89c0-1.03-0.33-1.88-1-2.54c-0.67-0.67-1.51-1-2.52-1c-0.96,0-1.78,0.36-2.46,1.07
					s-1.01,1.55-1.01,2.52c0,1.16,0.4,2.45,1.21,3.88H336.69z"/>
				<path class="st0" d="M351.47,42c-3.37,0-5.06-1.61-5.06-4.82l-0.02-12.46l2.05-0.31V36.7c0,2.09,1,3.13,3.01,3.13
					c0.16,0,0.24,0.07,0.24,0.22l0.02,1.71C351.71,41.92,351.63,42,351.47,42z"/>
				<path class="st0" d="M374.1,39.83c0.16,0,0.24,0.07,0.24,0.22v1.71c0,0.16-0.08,0.24-0.24,0.24c-1.33,0-2.58-0.49-3.74-1.47
					c-0.82,0.96-2.08,1.45-3.78,1.45c-1.29,0-2.63-0.43-4.02-1.28c-0.85,0.85-2.07,1.28-3.66,1.28c-1.16,0-2.35-0.42-3.59-1.25
					c-0.88,0.85-2.16,1.28-3.83,1.28c-0.16,0-0.24-0.08-0.24-0.24v-1.71c0-0.14,0.08-0.22,0.24-0.22c2.02,0,3.04-1,3.04-3.01
					l-0.02-3.9l2.05-0.31v4.77c0,0.67-0.1,1.29-0.29,1.86c0.93,0.39,1.77,0.58,2.51,0.58c2.02,0,3.04-1,3.04-3.01l-0.02-3.9
					l2.05-0.31v4.77c0,0.71-0.1,1.33-0.31,1.86c1,0.4,1.93,0.6,2.79,0.6c0.98,0,1.73-0.25,2.25-0.76c0.52-0.51,0.78-1.26,0.78-2.25
					v-6.46l2.02-0.34v7.35c0,0.53-0.06,1.05-0.19,1.57C372.09,39.53,373.07,39.83,374.1,39.83z M362.39,27.35l-1.74,1.76l-1.78-1.76
					l1.76-1.74L362.39,27.35z M363.9,24.41l-1.25,1.25l-1.28-1.25l1.25-1.28L363.9,24.41z M364.63,29.11l-1.78-1.76l1.78-1.74
					l1.76,1.74L364.63,29.11z"/>
				<path class="st0" d="M374.1,42c-0.16,0-0.24-0.08-0.24-0.24v-1.71c0-0.14,0.09-0.22,0.27-0.22c2.01,0,3.01-1.04,3.01-3.13
					l0.02-11.98l2.02-0.31v12.77C379.18,40.4,377.49,42,374.1,42z"/>
				<path class="st0" d="M383.35,42V24.72l2.05-0.31V42H383.35z"/>
				<path class="st0" d="M401.52,39.83c0.16,0,0.24,0.07,0.24,0.22v1.71c0,0.16-0.08,0.24-0.24,0.24c-1.24,0-2.14-0.43-2.72-1.28
					v0.63c0,2.01-0.51,3.48-1.54,4.42s-2.57,1.41-4.63,1.41l-0.19-1.76c2.89,0,4.34-1.38,4.34-4.15l-0.02-10.92l2.05-0.34v7.52
					C398.91,39.07,399.82,39.83,401.52,39.83z"/>
				<path class="st0" d="M406.22,39.83c0.16,0,0.24,0.07,0.24,0.22v1.71c0,0.16-0.08,0.24-0.24,0.24h-4.68
					c-0.16,0-0.24-0.08-0.24-0.24v-1.71c0-0.14,0.08-0.22,0.24-0.22H406.22z"/>
				<path class="st0" d="M410.9,39.83c0.16,0,0.24,0.07,0.24,0.22v1.71c0,0.16-0.08,0.24-0.24,0.24h-4.68
					c-0.16,0-0.24-0.08-0.24-0.24v-1.71c0-0.14,0.08-0.22,0.24-0.22H410.9z"/>
				<path class="st0" d="M415.57,39.83c0.16,0,0.24,0.07,0.24,0.22v1.71c0,0.16-0.08,0.24-0.24,0.24h-4.68
					c-0.16,0-0.24-0.08-0.24-0.24v-1.71c0-0.14,0.08-0.22,0.24-0.22H415.57z"/>
				<path class="st0" d="M424.64,39.83c0.16,0,0.24,0.07,0.24,0.22v1.71c0,0.16-0.08,0.24-0.24,0.24c-1.49,0-2.88-0.59-4.15-1.76
					c-0.87,1.17-2.51,1.76-4.92,1.76c-0.16,0-0.24-0.08-0.24-0.24l0.02-1.71c0-0.14,0.08-0.22,0.24-0.22c1.29,0,2.22-0.24,2.81-0.71
					c0.59-0.47,0.88-1.24,0.88-2.3v-3.9l2.02-0.31v4.77c0,0.4-0.04,0.82-0.12,1.25C422.27,39.43,423.42,39.83,424.64,39.83z
					 M416.37,45.64l1.76-1.74l1.76,1.74l-1.76,1.74L416.37,45.64z M420.18,45.64l1.78-1.74l1.76,1.74l-1.76,1.74L420.18,45.64z"/>
				<path class="st0" d="M438.23,39.83c0.16,0,0.24,0.07,0.24,0.22v1.71c0,0.16-0.08,0.24-0.24,0.24h-5.83c-1.59,0-2.92-0.39-4-1.18
					c-1.25,0.79-2.51,1.18-3.76,1.18c-0.16,0-0.24-0.08-0.24-0.24v-1.71c0-0.14,0.08-0.22,0.24-0.22c0.83,0,1.63-0.18,2.39-0.53
					c-0.58-0.95-0.87-2.08-0.87-3.4c0-1.61,0.51-2.94,1.54-4c1.03-1.06,2.34-1.59,3.93-1.59c1.49,0,2.77,0.53,3.83,1.6
					c1.06,1.07,1.59,2.33,1.59,3.77c0,1.25-0.28,2.63-0.84,4.15H438.23z M432.23,39.83h2c0.56-1.57,0.84-2.84,0.84-3.81
					c0-0.98-0.32-1.84-0.95-2.58c-0.63-0.74-1.43-1.11-2.37-1.11c-1.08,0-1.94,0.33-2.58,1c-0.64,0.67-0.96,1.55-0.96,2.64
					c0,1.16,0.36,2.09,1.08,2.8C430.01,39.48,430.99,39.83,432.23,39.83z"/>
				<path class="st0" d="M452.66,39.83c0.16,0,0.24,0.07,0.24,0.22v1.71c0,0.16-0.08,0.24-0.24,0.24c-2.81,0-5.08-0.43-6.8-1.28
					c-1.08,0.48-2.19,0.82-3.33,1c-1.14,0.19-2.58,0.28-4.31,0.28c-0.16-0.02-0.24-0.1-0.24-0.24v-1.71c0-0.14,0.08-0.22,0.24-0.22
					c1.65,0,3.29-0.14,4.89-0.43c-0.85-1.01-1.58-1.96-2.17-2.86c-0.59-0.89-1.25-2.02-1.98-3.39l0.77-1.86
					c2.25-1.16,4.28-1.74,6.1-1.74c1.61,0,2.94,0.43,4,1.28s1.59,1.94,1.59,3.25c0,0.92-0.28,1.84-0.84,2.78s-1.39,1.8-2.48,2.57
					C449.39,39.7,450.91,39.83,452.66,39.83z M445.51,31.64c-1.25-0.02-2.71,0.36-4.36,1.13c0.71,1.37,1.37,2.5,1.99,3.41
					c0.62,0.91,1.38,1.87,2.28,2.88c1.16-0.56,2.1-1.24,2.83-2.05c0.73-0.8,1.1-1.55,1.1-2.24c0-0.93-0.35-1.69-1.05-2.27
					C447.59,31.93,446.66,31.64,445.51,31.64z"/>
				<path class="st0" d="M461.77,39.83c0.16,0,0.24,0.07,0.24,0.22v1.71c0,0.16-0.08,0.24-0.24,0.24c-1.49,0-2.88-0.59-4.15-1.76
					c-0.87,1.17-2.51,1.76-4.92,1.76c-0.16,0-0.24-0.08-0.24-0.24l0.02-1.71c0-0.14,0.08-0.22,0.24-0.22c1.29,0,2.22-0.24,2.81-0.71
					c0.59-0.47,0.88-1.24,0.88-2.3v-3.9l2.02-0.31v4.77c0,0.4-0.04,0.82-0.12,1.25C459.4,39.43,460.55,39.83,461.77,39.83z
					 M457.15,29.13l-1.76,1.74l-1.76-1.74l1.76-1.73L457.15,29.13z M460.98,29.13l-1.76,1.74l-1.78-1.74l1.78-1.73L460.98,29.13z"/>
				<path class="st0" d="M461.77,42c-0.16,0-0.24-0.08-0.24-0.24v-1.71c0-0.14,0.09-0.22,0.27-0.22c2.01,0,3.01-1.04,3.01-3.13
					l0.02-11.98l2.02-0.31v12.77C466.86,40.4,465.16,42,461.77,42z"/>
				<path class="st0" d="M471.03,42V24.72l2.05-0.31V42H471.03z"/>
				<path class="st0" d="M495.37,24.34v14.53h-0.02v0.79c0,2.33-0.56,4.17-1.69,5.51c-1.12,1.34-2.86,2.01-5.21,2.01
					c-2.02,0-3.63-0.53-4.81-1.58c-1.18-1.05-1.77-2.61-1.77-4.66c0-1.72,0.35-3.65,1.06-5.81l1.66,0.46
					c-0.56,1.66-0.84,3.26-0.84,4.82c0.02,1.51,0.44,2.65,1.28,3.43c0.83,0.78,2.02,1.17,3.54,1.17c1.61,0,2.8-0.45,3.58-1.36
					c0.78-0.91,1.17-2.31,1.17-4.21v-9.09v-5.71L495.37,24.34z"/>
				<path class="st0" d="M510.14,39.83c0.16,0,0.24,0.07,0.24,0.22v1.71c0,0.16-0.08,0.24-0.24,0.24h-1.42
					c-0.29,3.45-3.28,5.18-8.96,5.18l-0.24-1.76c2.23,0,3.94-0.27,5.13-0.82c1.19-0.55,1.86-1.41,2.02-2.6h-2.89
					c-1.7,0-3.07-0.52-4.1-1.55c-1.03-1.04-1.54-2.43-1.54-4.18c0-1.72,0.53-3.12,1.58-4.22c1.05-1.09,2.38-1.64,3.99-1.64
					c1.49,0,2.71,0.49,3.64,1.48c0.93,0.99,1.4,2.29,1.4,3.92v4.02H510.14z M500.05,36.17c0,1.2,0.36,2.13,1.08,2.77
					c0.72,0.64,1.7,0.96,2.92,0.96c0.51,0,1.4-0.02,2.65-0.05v-3.88c0-1.04-0.29-1.88-0.88-2.52c-0.59-0.63-1.35-0.95-2.3-0.95
					c-1,0-1.82,0.34-2.48,1.01C500.37,34.19,500.05,35.08,500.05,36.17z"/>
				<path class="st0" d="M514.82,39.83c0.16,0,0.24,0.07,0.24,0.22v1.71c0,0.16-0.08,0.24-0.24,0.24h-4.68
					c-0.16,0-0.24-0.08-0.24-0.24v-1.71c0-0.14,0.08-0.22,0.24-0.22H514.82z"/>
				<path class="st0" d="M519.49,39.83c0.16,0,0.24,0.07,0.24,0.22v1.71c0,0.16-0.08,0.24-0.24,0.24h-4.68
					c-0.16,0-0.24-0.08-0.24-0.24v-1.71c0-0.14,0.08-0.22,0.24-0.22H519.49z"/>
				<path class="st0" d="M527.3,39.83c0.16,0,0.24,0.07,0.24,0.22v1.71c0,0.16-0.08,0.24-0.24,0.24c-1.94,0-3.33-0.52-4.15-1.57
					c-1.11,1.04-2.33,1.57-3.66,1.57c-0.16,0-0.24-0.08-0.24-0.24v-1.71c0-0.14,0.08-0.22,0.24-0.22c1.16,0,2.13-0.34,2.92-1.01
					c-0.11-0.45-0.17-1-0.17-1.64V24.72l2.05-0.31V36.7C524.29,38.79,525.29,39.83,527.3,39.83z"/>
				<path class="st0" d="M532,39.83c0.16,0,0.24,0.07,0.24,0.22v1.71c0,0.16-0.08,0.24-0.24,0.24h-4.68c-0.16,0-0.24-0.08-0.24-0.24
					v-1.71c0-0.14,0.08-0.22,0.24-0.22H532z"/>
				<path class="st0" d="M536.24,30.63c1.04,0,2.15,0.35,3.31,1.04c1.16,0.69,3.12,2.18,5.87,4.46l-0.31,2
					c-2.51,1.33-4.78,2.31-6.83,2.94c-2.05,0.63-4.13,0.94-6.25,0.94c-0.18,0-0.27-0.08-0.27-0.24v-1.71c0-0.14,0.09-0.22,0.27-0.22
					c3.71,0,7.48-0.93,11.3-2.8c-2.07-1.74-3.6-2.88-4.59-3.45c-0.99-0.56-1.92-0.84-2.81-0.84c-0.37,0-1.16,0.13-2.36,0.39
					l-0.41-1.83C534.35,30.85,535.38,30.63,536.24,30.63z"/>
			</g>
		</g>
		<g>
			<g>
				<path class="st0" d="M309.32,70.69c-0.98,0.59-2.09,0.89-3.33,0.89c-1.5,0-2.72-0.46-3.67-1.38c-0.95-0.92-1.42-2.15-1.42-3.7
					s0.48-2.78,1.43-3.7c0.95-0.92,2.19-1.38,3.72-1.38c1.25,0,2.36,0.3,3.32,0.89l-0.25,1.19c-0.91-0.62-1.94-0.93-3.08-0.93
					c-1.13,0-2.05,0.35-2.74,1.06c-0.69,0.71-1.04,1.67-1.04,2.87s0.34,2.17,1.03,2.88c0.69,0.71,1.59,1.06,2.7,1.06
					c1.28,0,2.38-0.32,3.31-0.97V70.69z"/>
				<path class="st0" d="M320.75,70.14c-0.94,0.96-2.21,1.44-3.81,1.44c-1.6,0-2.87-0.48-3.81-1.44c-0.94-0.96-1.42-2.17-1.42-3.64
					c0-1.46,0.47-2.67,1.42-3.64c0.94-0.96,2.21-1.44,3.81-1.44c1.6,0,2.87,0.48,3.81,1.44c0.94,0.96,1.42,2.18,1.42,3.64
					C322.17,67.96,321.7,69.18,320.75,70.14z M316.94,62.56c-1.17,0-2.11,0.36-2.8,1.09c-0.7,0.73-1.04,1.67-1.04,2.85
					c0,1.18,0.35,2.13,1.04,2.85c0.7,0.72,1.63,1.08,2.8,1.08c1.18,0,2.12-0.36,2.81-1.08c0.69-0.72,1.04-1.67,1.04-2.85
					c0-1.17-0.35-2.12-1.04-2.85C319.06,62.92,318.12,62.56,316.94,62.56z"/>
				<path class="st0" d="M326.38,63.59v7.84h-1.23v-9.87h1.34l5.94,7.8v-7.71l1.25-0.19v9.97h-1.34L326.38,63.59z"/>
				<path class="st0" d="M336.6,69.44c1,0.66,2.12,0.99,3.37,0.99c0.68,0,1.25-0.13,1.71-0.38c0.46-0.25,0.7-0.66,0.7-1.23
					c0-0.33-0.1-0.62-0.31-0.86c-0.21-0.24-0.48-0.44-0.81-0.58s-0.69-0.28-1.1-0.41c-0.4-0.13-0.8-0.27-1.21-0.42
					c-0.4-0.15-0.77-0.33-1.1-0.53s-0.6-0.47-0.81-0.81s-0.31-0.75-0.31-1.21c0-0.87,0.32-1.52,0.96-1.95
					c0.64-0.43,1.44-0.64,2.4-0.64c1.2,0,2.34,0.3,3.43,0.89l-0.2,1.21c-1-0.63-2.02-0.94-3.08-0.94c-1.41,0-2.12,0.46-2.12,1.38
					c0,0.3,0.1,0.56,0.31,0.78c0.21,0.22,0.48,0.4,0.81,0.53c0.33,0.13,0.69,0.26,1.1,0.38s0.8,0.26,1.21,0.41
					c0.4,0.16,0.77,0.34,1.1,0.54s0.6,0.49,0.81,0.86c0.21,0.36,0.31,0.79,0.31,1.27c0,0.97-0.35,1.69-1.05,2.16
					c-0.7,0.47-1.57,0.7-2.59,0.7c-1.34,0-2.51-0.3-3.51-0.89V69.44z"/>
				<path class="st0" d="M355.18,70.14c-0.94,0.96-2.21,1.44-3.81,1.44c-1.6,0-2.87-0.48-3.81-1.44c-0.94-0.96-1.42-2.17-1.42-3.64
					c0-1.46,0.47-2.67,1.42-3.64c0.94-0.96,2.21-1.44,3.81-1.44c1.6,0,2.87,0.48,3.81,1.44c0.94,0.96,1.42,2.18,1.42,3.64
					C356.59,67.96,356.12,69.18,355.18,70.14z M351.37,62.56c-1.17,0-2.11,0.36-2.8,1.09c-0.7,0.73-1.04,1.67-1.04,2.85
					c0,1.18,0.35,2.13,1.04,2.85c0.7,0.72,1.63,1.08,2.8,1.08c1.18,0,2.12-0.36,2.81-1.08c0.69-0.72,1.04-1.67,1.04-2.85
					c0-1.17-0.35-2.12-1.04-2.85C353.48,62.92,352.55,62.56,351.37,62.56z"/>
				<path class="st0" d="M359.57,71.43v-9.79l1.35-0.19v8.83h5.43l0.19,1.15H359.57z"/>
				<path class="st0" d="M370.49,71.43h-1.35v-9.79l1.35-0.19V71.43z"/>
				<path class="st0" d="M374.03,71.43v-9.87h3.56c1.6,0,2.86,0.46,3.79,1.38c0.93,0.92,1.39,2.11,1.39,3.56
					c0,1.46-0.46,2.65-1.39,3.56c-0.93,0.92-2.19,1.37-3.79,1.37H374.03z M377.57,70.28c1.18,0,2.11-0.34,2.79-1.02
					s1.02-1.6,1.02-2.77c0-1.16-0.34-2.08-1.03-2.77c-0.69-0.68-1.62-1.02-2.79-1.02h-2.19v7.58H377.57z"/>
				<path class="st0" d="M393.29,71.53l-0.99-2.41h-5.1l-0.94,2.31h-1.39l4.12-9.86l1.54-0.19l4.11,9.95L393.29,71.53z
					 M387.67,67.99h4.17l-2.09-5.1L387.67,67.99z"/>
				<path class="st0" d="M399.57,71.43V62.7h-3.43v-1.15h8.22l-0.19,1.15h-3.24v8.73H399.57z"/>
				<path class="st0" d="M406.86,71.43v-9.87h6.85v1.15h-5.5v3.11h5.02l0.19,1.13h-5.21v3.34h5.65v1.15H406.86z"/>
				<path class="st0" d="M416.88,71.43v-9.87h3.56c1.6,0,2.86,0.46,3.79,1.38c0.93,0.92,1.39,2.11,1.39,3.56
					c0,1.46-0.46,2.65-1.39,3.56c-0.93,0.92-2.19,1.37-3.79,1.37H416.88z M420.42,70.28c1.18,0,2.11-0.34,2.79-1.02
					s1.02-1.6,1.02-2.77c0-1.16-0.34-2.08-1.03-2.77c-0.69-0.68-1.62-1.02-2.79-1.02h-2.19v7.58H420.42z"/>
				<path class="st0" d="M441.03,70.69c-0.98,0.59-2.09,0.89-3.33,0.89c-1.5,0-2.72-0.46-3.67-1.38c-0.95-0.92-1.42-2.15-1.42-3.7
					s0.48-2.78,1.43-3.7c0.95-0.92,2.19-1.38,3.72-1.38c1.25,0,2.36,0.3,3.32,0.89l-0.25,1.19c-0.91-0.62-1.94-0.93-3.08-0.93
					c-1.13,0-2.05,0.35-2.74,1.06c-0.69,0.71-1.04,1.67-1.04,2.87s0.34,2.17,1.03,2.88c0.69,0.71,1.59,1.06,2.7,1.06
					c1.28,0,2.38-0.32,3.31-0.97V70.69z"/>
				<path class="st0" d="M452.46,70.14c-0.94,0.96-2.21,1.44-3.81,1.44c-1.6,0-2.87-0.48-3.81-1.44c-0.94-0.96-1.42-2.17-1.42-3.64
					c0-1.46,0.47-2.67,1.42-3.64c0.94-0.96,2.21-1.44,3.81-1.44c1.6,0,2.87,0.48,3.81,1.44c0.94,0.96,1.42,2.18,1.42,3.64
					C453.87,67.96,453.4,69.18,452.46,70.14z M448.65,62.56c-1.17,0-2.11,0.36-2.8,1.09c-0.7,0.73-1.04,1.67-1.04,2.85
					c0,1.18,0.35,2.13,1.04,2.85c0.7,0.72,1.63,1.08,2.8,1.08c1.18,0,2.12-0.36,2.81-1.08c0.69-0.72,1.04-1.67,1.04-2.85
					c0-1.17-0.35-2.12-1.04-2.85C450.77,62.92,449.83,62.56,448.65,62.56z"/>
				<path class="st0" d="M458.09,63.59v7.84h-1.23v-9.87h1.34l5.94,7.8v-7.71l1.25-0.19v9.97h-1.34L458.09,63.59z"/>
				<path class="st0" d="M471.3,71.43V62.7h-3.43v-1.15h8.22l-0.19,1.15h-3.24v8.73H471.3z"/>
				<path class="st0" d="M485.4,71.57l-3.03-3.95h-2.42v3.8h-1.35v-9.87h4.23c1.13,0,1.99,0.26,2.58,0.77
					c0.59,0.51,0.89,1.26,0.89,2.25c0,0.79-0.22,1.44-0.65,1.94c-0.44,0.5-1.05,0.81-1.84,0.94l3.04,3.93L485.4,71.57z
					 M479.94,66.48h2.7c1.51,0,2.26-0.63,2.26-1.9c0-1.25-0.75-1.87-2.26-1.87h-2.7V66.48z"/>
				<path class="st0" d="M496.79,71.53l-0.99-2.41h-5.1l-0.94,2.31h-1.39l4.12-9.86l1.54-0.19l4.11,9.95L496.79,71.53z
					 M491.18,67.99h4.17l-2.09-5.1L491.18,67.99z"/>
				<path class="st0" d="M508.56,70.69c-0.98,0.59-2.09,0.89-3.33,0.89c-1.5,0-2.72-0.46-3.67-1.38c-0.95-0.92-1.42-2.15-1.42-3.7
					s0.48-2.78,1.43-3.7c0.95-0.92,2.19-1.38,3.72-1.38c1.25,0,2.36,0.3,3.32,0.89l-0.25,1.19c-0.91-0.62-1.94-0.93-3.08-0.93
					c-1.13,0-2.05,0.35-2.74,1.06c-0.69,0.71-1.04,1.67-1.04,2.87s0.34,2.17,1.03,2.88c0.69,0.71,1.59,1.06,2.7,1.06
					c1.28,0,2.38-0.32,3.31-0.97V70.69z"/>
				<path class="st0" d="M513.9,71.43V62.7h-3.43v-1.15h8.22l-0.19,1.15h-3.24v8.73H513.9z"/>
				<path class="st0" d="M522.54,71.43h-1.35v-9.79l1.35-0.19V71.43z"/>
				<path class="st0" d="M527.31,63.59v7.84h-1.23v-9.87h1.34l5.94,7.8v-7.71l1.25-0.19v9.97h-1.34L527.31,63.59z"/>
				<path class="st0" d="M544.69,66.62l1.31-0.19v4.43c-0.95,0.47-2.09,0.71-3.43,0.71c-1.49,0-2.7-0.46-3.62-1.37
					c-0.92-0.92-1.38-2.15-1.38-3.71s0.46-2.79,1.38-3.71c0.92-0.92,2.12-1.37,3.62-1.37c1.25,0,2.36,0.3,3.33,0.89l-0.19,1.19
					c-0.91-0.62-1.94-0.93-3.08-0.93c-1.1,0-1.99,0.35-2.66,1.06c-0.67,0.71-1.01,1.67-1.01,2.87s0.34,2.17,1.01,2.88
					c0.67,0.71,1.56,1.06,2.66,1.06c0.81,0,1.5-0.12,2.06-0.36V66.62z"/>
				<path class="st0" d="M300.85,90.23c1,0.66,2.12,0.99,3.37,0.99c0.68,0,1.25-0.13,1.71-0.38c0.46-0.25,0.7-0.66,0.7-1.23
					c0-0.33-0.1-0.62-0.31-0.86c-0.21-0.24-0.48-0.44-0.81-0.58s-0.69-0.28-1.1-0.41c-0.4-0.13-0.8-0.27-1.21-0.42
					c-0.4-0.15-0.77-0.33-1.1-0.53s-0.6-0.47-0.81-0.81S301,85.25,301,84.79c0-0.87,0.32-1.52,0.96-1.95
					c0.64-0.43,1.44-0.64,2.4-0.64c1.2,0,2.34,0.3,3.43,0.89l-0.2,1.21c-1-0.63-2.02-0.94-3.08-0.94c-1.41,0-2.12,0.46-2.12,1.38
					c0,0.3,0.1,0.56,0.31,0.78c0.21,0.22,0.48,0.4,0.81,0.53c0.33,0.13,0.69,0.26,1.1,0.38s0.8,0.26,1.21,0.41
					c0.4,0.16,0.77,0.34,1.1,0.54s0.6,0.49,0.81,0.86c0.21,0.36,0.31,0.79,0.31,1.27c0,0.97-0.35,1.69-1.05,2.16
					c-0.7,0.47-1.57,0.7-2.59,0.7c-1.34,0-2.51-0.3-3.51-0.89V90.23z"/>
				<path class="st0" d="M319.43,90.93c-0.94,0.96-2.21,1.44-3.81,1.44c-1.6,0-2.87-0.48-3.81-1.44c-0.94-0.96-1.42-2.17-1.42-3.64
					c0-1.46,0.47-2.67,1.42-3.64c0.94-0.96,2.21-1.44,3.81-1.44c1.6,0,2.87,0.48,3.81,1.44c0.94,0.96,1.42,2.18,1.42,3.64
					C320.85,88.75,320.38,89.97,319.43,90.93z M315.62,83.35c-1.17,0-2.11,0.36-2.8,1.09c-0.7,0.73-1.04,1.67-1.04,2.85
					c0,1.18,0.35,2.13,1.04,2.85c0.7,0.72,1.63,1.08,2.8,1.08c1.18,0,2.12-0.36,2.81-1.08c0.69-0.72,1.04-1.67,1.04-2.85
					c0-1.17-0.35-2.12-1.04-2.85C317.74,83.71,316.8,83.35,315.62,83.35z"/>
				<path class="st0" d="M323.82,92.22v-9.79l1.35-0.19v8.83h5.43l0.19,1.15H323.82z"/>
				<path class="st0" d="M333.28,82.43l1.35-0.19v6.14c0,0.87,0.24,1.56,0.73,2.07c0.48,0.51,1.21,0.76,2.16,0.76
					s1.68-0.25,2.16-0.76c0.48-0.51,0.72-1.2,0.72-2.07v-5.95l1.35-0.19v6.36c0,1.07-0.36,1.97-1.07,2.69
					c-0.72,0.72-1.77,1.08-3.15,1.08c-1.4,0-2.46-0.37-3.17-1.1c-0.71-0.73-1.07-1.62-1.07-2.66V82.43z"/>
				<path class="st0" d="M347.55,92.22v-8.73h-3.43v-1.15h8.22l-0.19,1.15h-3.24v8.73H347.55z"/>
				<path class="st0" d="M356.19,92.22h-1.35v-9.79l1.35-0.19V92.22z"/>
				<path class="st0" d="M368.22,90.93c-0.94,0.96-2.21,1.44-3.81,1.44c-1.6,0-2.87-0.48-3.81-1.44c-0.94-0.96-1.42-2.17-1.42-3.64
					c0-1.46,0.47-2.67,1.42-3.64c0.94-0.96,2.21-1.44,3.81-1.44c1.6,0,2.87,0.48,3.81,1.44c0.94,0.96,1.42,2.18,1.42,3.64
					C369.63,88.75,369.16,89.97,368.22,90.93z M364.41,83.35c-1.17,0-2.11,0.36-2.8,1.09c-0.7,0.73-1.04,1.67-1.04,2.85
					c0,1.18,0.35,2.13,1.04,2.85c0.7,0.72,1.63,1.08,2.8,1.08c1.18,0,2.12-0.36,2.81-1.08c0.69-0.72,1.04-1.67,1.04-2.85
					c0-1.17-0.35-2.12-1.04-2.85C366.52,83.71,365.59,83.35,364.41,83.35z"/>
				<path class="st0" d="M373.84,84.38v7.84h-1.23v-9.87h1.34l5.94,7.8v-7.71l1.25-0.19v9.97h-1.34L373.84,84.38z"/>
				<path class="st0" d="M384.07,90.23c1,0.66,2.12,0.99,3.37,0.99c0.68,0,1.25-0.13,1.71-0.38c0.46-0.25,0.7-0.66,0.7-1.23
					c0-0.33-0.1-0.62-0.31-0.86c-0.21-0.24-0.48-0.44-0.81-0.58s-0.69-0.28-1.1-0.41c-0.4-0.13-0.8-0.27-1.21-0.42
					c-0.4-0.15-0.77-0.33-1.1-0.53s-0.6-0.47-0.81-0.81s-0.31-0.75-0.31-1.21c0-0.87,0.32-1.52,0.96-1.95
					c0.64-0.43,1.44-0.64,2.4-0.64c1.2,0,2.34,0.3,3.43,0.89l-0.2,1.21c-1-0.63-2.02-0.94-3.08-0.94c-1.41,0-2.12,0.46-2.12,1.38
					c0,0.3,0.1,0.56,0.31,0.78c0.21,0.22,0.48,0.4,0.81,0.53c0.33,0.13,0.69,0.26,1.1,0.38s0.8,0.26,1.21,0.41
					c0.4,0.16,0.77,0.34,1.1,0.54s0.6,0.49,0.81,0.86c0.21,0.36,0.31,0.79,0.31,1.27c0,0.97-0.35,1.69-1.05,2.16
					c-0.7,0.47-1.57,0.7-2.59,0.7c-1.34,0-2.51-0.3-3.51-0.89V90.23z"/>
				<path class="st0" d="M398.61,92.22v-9.79l1.35-0.19v8.83h5.43l0.19,1.15H398.61z"/>
				<path class="st0" d="M410.58,92.22v-8.73h-3.43v-1.15h8.22l-0.19,1.15h-3.24v8.73H410.58z"/>
				<path class="st0" d="M417.87,92.22v-9.87h3.56c1.6,0,2.86,0.46,3.79,1.38c0.93,0.92,1.39,2.11,1.39,3.56
					c0,1.46-0.46,2.65-1.39,3.56c-0.93,0.92-2.19,1.37-3.79,1.37H417.87z M421.41,91.07c1.18,0,2.11-0.34,2.79-1.02
					s1.02-1.6,1.02-2.77c0-1.16-0.34-2.08-1.03-2.77c-0.69-0.68-1.62-1.02-2.79-1.02h-2.19v7.58H421.41z"/>
				<path class="st0" d="M430.43,92.22h-1.28v-1.29h1.28V92.22z"/>
			</g>
		</g>
	</g>
	<path class="st0" d="M102.47,74c-2.92,3.04-18.24,13.71-22.07,15.99c-3.8,2.25-7.83,4-11.99,5.23c-4.15,1.23-8.42,1.81-12.72,1.81
		c-6.46,0-12.54-1.11-18.09-3.48c-5.64-2.28-10.52-5.52-14.67-9.62c-4.18-4.18-7.45-9-9.79-14.53c-0.5-1.08-0.85-2.1-1.23-3.19
		l-1.29-4.79c-0.21-0.92-0.39-1.85-0.53-2.78c-0.35-2.29-0.11-4.63,0.6-6.83l0.58-1.78c5.47-16.9,20.93-28.27,38.62-28.53
		c-3.16,0.82-6.17,2.08-9,3.71c-0.35,0.23-0.7,0.44-1.02,0.64c-1.58,1.08-2.98,2.25-4.33,3.62c-2.72,2.84-4.82,6.11-6.34,9.82
		c-1.52,3.71-2.31,7.75-2.31,11.99c0,4.33,0.79,8.36,2.31,12.1c1.52,3.77,3.62,6.99,6.34,9.76c2.75,2.81,5.93,5,9.5,6.61
		c3.57,1.58,7.45,2.4,11.55,2.4c4.3,0,8.56-0.96,12.77-2.86c4.21-1.87,24.7-14.88,27.97-18.15L102.47,74z"/>
	<g>
		<path class="st0" d="M90.48,20.46L80.6,32.11c-5.33-5.24-11.99-9.1-19.43-11.01h-0.05c-3.43-0.93-7-1.37-10.67-1.37
			c-19.08,0-35.28,12.48-40.86,29.75c0.24-5.63,1.42-10.81,3.52-15.71c2.35-5.43,5.68-10.18,9.98-14.34
			c4.31-4.11,9.25-7.34,14.83-9.59c5.63-2.3,11.74-3.43,18.4-3.43c4.31,0,8.46,0.59,12.57,1.71c4.11,1.13,7.98,2.74,11.69,4.8
			C84.32,14.98,87.6,17.53,90.48,20.46z"/>
	</g>
	<linearGradient id="SVGID_1_" gradientUnits="userSpaceOnUse" x1="107.2009" y1="59.9105" x2="78.6791" y2="80.8697">
		<stop  offset="0.0235" style="stop-color:#101417"/>
		<stop  offset="0.9946" style="stop-color:#252F36"/>
	</linearGradient>
	<path class="st1" d="M102.47,74c-2.92,3.04-18.24,13.71-22.07,15.99c-3.8,2.25-7.83,4-11.99,5.23c-3.6,1.05-7.28,1.64-10.99,1.78
		l5.41-15.55c2.19-0.47,4.36-1.2,6.52-2.16c4.21-1.87,24.7-14.88,27.97-18.15L102.47,74z"/>
	<path class="st0" d="M254.01,70.75c0,5.5-1.46,10.2-4.41,14.06c-2.92,3.86-6.93,6.84-12.07,8.94c-5.09,2.1-10.9,3.19-17.36,3.19
		c-4.71,0-9.35-0.64-13.86-1.87c-1.82-0.44-3.59-1.02-5.32-1.65c-2.19-0.81-5.61-2.5-7.6-3.72l-1.9-1.17
		c-3.27-1.75-7.04-2.78-11.05-2.78c-4.03,0-7.66,0.47-11.08,2.78l-2.34,1.46c-3.83,2.25-7.83,4-11.99,5.23
		c-4.15,1.23-8.42,1.81-12.72,1.81c-6.46,0-12.54-1.11-18.12-3.48c-5.61-2.28-10.52-5.52-14.67-9.62h-0.03
		c-1.05-1.02-2.02-2.1-2.89-3.24c-0.88-1.08-1.72-2.13-2.46-3.27c-0.15-0.15-0.23-0.35-0.38-0.53c-0.41-0.56-0.73-1.14-1.08-1.72
		c-0.2-0.29-0.35-0.58-0.56-0.88c-0.15-0.29-0.32-0.58-0.44-0.88c-0.73-1.29-1.4-2.6-1.99-4c-0.2-0.47-0.35-0.91-0.5-1.34
		c-0.23-0.61-0.44-1.2-0.67-1.84l-1.34-4.79c0-0.06,0.06-0.06,0.06-0.12c0-0.03,0-0.03,0-0.09c-0.21-0.85-0.38-1.72-0.52-2.6
		c-0.37-2.32-0.12-4.69,0.61-6.92l0.55-1.68c5.44-16.9,20.93-28.3,38.64-28.53c-3.16,0.79-6.17,2.08-9.03,3.71
		c-0.35,0.23-0.7,0.44-1.05,0.64c-0.76,0.53-1.52,1.08-2.19,1.67c-0.73,0.58-1.43,1.26-2.1,1.96c-0.67,0.67-1.32,1.46-1.96,2.19
		c-1.81,2.31-3.27,4.85-4.41,7.63c-0.82,2.1-1.46,4.27-1.84,6.55c-0.09,0.76-0.2,1.52-0.29,2.31c-0.12,1.02-0.15,2.05-0.15,3.13
		c0,1.08,0.03,2.16,0.15,3.19c0.09,0.79,0.2,1.58,0.29,2.31c0.38,2.28,1.02,4.5,1.84,6.61c1.14,2.84,2.6,5.32,4.41,7.63
		c0.64,0.73,1.29,1.46,1.96,2.13c2.75,2.81,5.93,5,9.5,6.61c3.57,1.58,7.43,2.4,11.55,2.4c4.3,0,8.56-0.96,12.77-2.86
		c0.23-0.12,0.58-0.29,0.96-0.5c2.54-1.17,7.19-3.42,11.69-6.17c5.82-3.48,12.77-4.21,19.09-2.1c1.29,0.38,2.54,0.94,3.77,1.58
		c3.42,1.84,6.66,3.16,8.16,4c3.6,2.02,7.1,3.51,10.73,4.59c3.57,1.02,6.9,1.58,10.03,1.58c4.79,0,8.56-0.94,11.2-2.81
		c2.66-1.84,3.98-4.44,3.98-7.8c0-2.81-0.82-5-2.6-6.72c-1.7-1.67-3.95-3.07-6.75-4.24c-2.78-1.14-5.88-2.1-9.3-2.98
		c-3.42-0.94-6.78-1.96-10.17-3.19c-3.36-1.23-6.46-2.81-9.3-4.71c-2.78-1.87-5.09-4.3-6.81-7.25c-1.75-2.98-2.57-6.69-2.57-11.25
		c0-5.12,1.37-9.59,4.15-13.3c2.78-3.77,6.66-6.66,11.6-8.77c5.61-2.34,12.42-3.36,20.29-3.01c4.76,0.18,9.44,1.02,14,2.4
		c5.73,1.67,10.76,3.92,15.03,6.78l-10.17,11.96c-2.08-1.08-4.12-2.08-6.23-2.89c-3.22-1.23-6.26-2.16-9.15-2.69
		c-2.84-0.53-5.47-0.85-7.83-0.85c-3.95,0-7.07,0.76-9.53,2.31c-2.4,1.52-3.62,3.71-3.62,6.69c0,2.72,0.88,4.91,2.63,6.58
		c1.72,1.67,3.98,3.07,6.81,4.15c2.84,1.14,5.93,2.16,9.3,3.19c3.39,0.96,6.69,2.1,10.14,3.33c3.3,1.2,6.4,2.78,9.24,4.74
		c2.84,1.96,5.09,4.41,6.75,7.48C253.19,62.45,254.01,66.22,254.01,70.75z"/>
	<g>
		<path class="st0" d="M177.08,20.46l-9.88,11.65c-5.33-5.24-11.99-9.1-19.43-11.01h-0.05c-3.43-0.93-7-1.37-10.67-1.37
			c-19.08,0-35.28,12.48-40.86,29.75c0.24-5.63,1.42-10.81,3.52-15.71c2.35-5.43,5.68-10.18,9.98-14.34
			c4.31-4.11,9.25-7.34,14.83-9.59c5.63-2.3,11.74-3.43,18.4-3.43c4.31,0,8.46,0.59,12.57,1.71c4.11,1.13,7.98,2.74,11.69,4.8
			C170.91,14.98,174.19,17.53,177.08,20.46z"/>
	</g>
</g>
</svg>
