<?xml version="1.0" encoding="utf-8"?>
<!-- Generator: Adobe Illustrator 28.1.0, SVG Export Plug-In . SVG Version: 6.00 Build 0)  -->
<svg version="1.1" id="Layer_1" xmlns="http://www.w3.org/2000/svg" xmlns:xlink="http://www.w3.org/1999/xlink" x="0px" y="0px"
	 viewBox="0 0 32 32" style="enable-background:new 0 0 32 32;" xml:space="preserve">
<style type="text/css">
	.st0{fill:#222F37;}
	.st1{fill:url(#SVGID_1_);}
</style>
<g>
	<path class="st0" d="M12.3,18.8c-0.4,0.4-2.3,1.7-2.8,2c-0.5,0.3-1,0.5-1.5,0.7c-0.5,0.2-1.1,0.2-1.6,0.2c-0.8,0-1.6-0.1-2.3-0.4
		c-0.7-0.3-1.3-0.7-1.8-1.2c-0.5-0.5-0.9-1.1-1.2-1.8C1,18.1,1,18,0.9,17.8l-0.2-0.6c0-0.1,0-0.2-0.1-0.3c0-0.3,0-0.6,0.1-0.9
		l0.1-0.2c0.7-2.1,2.6-3.6,4.9-3.6c-0.4,0.1-0.8,0.3-1.1,0.5c0,0-0.1,0.1-0.1,0.1c-0.2,0.1-0.4,0.3-0.5,0.5
		c-0.3,0.4-0.6,0.8-0.8,1.2c-0.2,0.5-0.3,1-0.3,1.5c0,0.5,0.1,1,0.3,1.5c0.2,0.5,0.5,0.9,0.8,1.2c0.3,0.4,0.7,0.6,1.2,0.8
		c0.4,0.2,0.9,0.3,1.5,0.3c0.5,0,1.1-0.1,1.6-0.4c0.5-0.2,3.1-1.9,3.5-2.3L12.3,18.8z"/>
	<g>
		<path class="st0" d="M10.8,12.1l-1.2,1.5c-0.7-0.7-1.5-1.1-2.4-1.4h0C6.7,12,6.2,12,5.8,12c-2.4,0-4.4,1.6-5.1,3.7
			c0-0.7,0.2-1.4,0.4-2c0.3-0.7,0.7-1.3,1.3-1.8c0.5-0.5,1.2-0.9,1.9-1.2c0.7-0.3,1.5-0.4,2.3-0.4c0.5,0,1.1,0.1,1.6,0.2
			c0.5,0.1,1,0.3,1.5,0.6C10,11.4,10.4,11.7,10.8,12.1z"/>
	</g>
	
		<linearGradient id="SVGID_1_" gradientUnits="userSpaceOnUse" x1="12.9103" y1="150.4204" x2="9.3277" y2="153.0531" gradientTransform="matrix(1 0 0 1 0 -133.3782)">
		<stop  offset="2.350000e-02" style="stop-color:#101417"/>
		<stop  offset="0.9946" style="stop-color:#252F36"/>
	</linearGradient>
	<path class="st1" d="M12.3,18.8c-0.4,0.4-2.3,1.7-2.8,2c-0.5,0.3-1,0.5-1.5,0.7c-0.5,0.1-0.9,0.2-1.4,0.2l0.7-2
		c0.3-0.1,0.5-0.2,0.8-0.3c0.5-0.2,3.1-1.9,3.5-2.3L12.3,18.8z"/>
	<path class="st0" d="M31.4,18.4c0,0.7-0.2,1.3-0.6,1.8c-0.4,0.5-0.9,0.9-1.5,1.1c-0.6,0.3-1.4,0.4-2.2,0.4c-0.6,0-1.2-0.1-1.7-0.2
		c-0.2-0.1-0.5-0.1-0.7-0.2c-0.3-0.1-0.7-0.3-1-0.5l-0.2-0.1c-0.4-0.2-0.9-0.3-1.4-0.3c-0.5,0-1,0.1-1.4,0.3l-0.3,0.2
		c-0.5,0.3-1,0.5-1.5,0.7c-0.5,0.2-1.1,0.2-1.6,0.2c-0.8,0-1.6-0.1-2.3-0.4c-0.7-0.3-1.3-0.7-1.8-1.2h0c-0.1-0.1-0.3-0.3-0.4-0.4
		c-0.1-0.1-0.2-0.3-0.3-0.4c0,0,0,0,0-0.1c-0.1-0.1-0.1-0.1-0.1-0.2c0,0,0-0.1-0.1-0.1c0,0,0-0.1-0.1-0.1c-0.1-0.2-0.2-0.3-0.2-0.5
		c0-0.1,0-0.1-0.1-0.2c0-0.1-0.1-0.2-0.1-0.2l-0.2-0.6c0,0,0,0,0,0c0,0,0,0,0,0c0-0.1,0-0.2-0.1-0.3c0-0.3,0-0.6,0.1-0.9l0.1-0.2
		c0.7-2.1,2.6-3.6,4.9-3.6c-0.4,0.1-0.8,0.3-1.1,0.5c0,0-0.1,0.1-0.1,0.1c-0.1,0.1-0.2,0.1-0.3,0.2c-0.1,0.1-0.2,0.2-0.3,0.2
		c-0.1,0.1-0.2,0.2-0.2,0.3c-0.2,0.3-0.4,0.6-0.6,1c-0.1,0.3-0.2,0.5-0.2,0.8c0,0.1,0,0.2,0,0.3c0,0.1,0,0.3,0,0.4s0,0.3,0,0.4
		c0,0.1,0,0.2,0,0.3c0,0.3,0.1,0.6,0.2,0.8c0.1,0.4,0.3,0.7,0.6,1c0.1,0.1,0.2,0.2,0.2,0.3c0.3,0.4,0.7,0.6,1.2,0.8
		c0.4,0.2,0.9,0.3,1.5,0.3c0.5,0,1.1-0.1,1.6-0.4c0,0,0.1,0,0.1-0.1c0.3-0.1,0.9-0.4,1.5-0.8c0.7-0.4,1.6-0.5,2.4-0.3
		c0.2,0,0.3,0.1,0.5,0.2c0.4,0.2,0.8,0.4,1,0.5c0.5,0.3,0.9,0.4,1.3,0.6c0.4,0.1,0.9,0.2,1.3,0.2c0.6,0,1.1-0.1,1.4-0.4
		c0.3-0.2,0.5-0.6,0.5-1c0-0.4-0.1-0.6-0.3-0.8c-0.2-0.2-0.5-0.4-0.8-0.5c-0.3-0.1-0.7-0.3-1.2-0.4c-0.4-0.1-0.9-0.2-1.3-0.4
		c-0.4-0.2-0.8-0.4-1.2-0.6c-0.3-0.2-0.6-0.5-0.9-0.9c-0.2-0.4-0.3-0.8-0.3-1.4c0-0.6,0.2-1.2,0.5-1.7c0.3-0.5,0.8-0.8,1.5-1.1
		c0.7-0.3,1.6-0.4,2.5-0.4c0.6,0,1.2,0.1,1.8,0.3c0.7,0.2,1.4,0.5,1.9,0.9L30,13c-0.3-0.1-0.5-0.3-0.8-0.4c-0.4-0.2-0.8-0.3-1.1-0.3
		c-0.4-0.1-0.7-0.1-1-0.1c-0.5,0-0.9,0.1-1.2,0.3c-0.3,0.2-0.5,0.5-0.5,0.8c0,0.3,0.1,0.6,0.3,0.8c0.2,0.2,0.5,0.4,0.9,0.5
		c0.4,0.1,0.7,0.3,1.2,0.4c0.4,0.1,0.8,0.3,1.3,0.4c0.4,0.2,0.8,0.3,1.2,0.6c0.4,0.2,0.6,0.6,0.8,0.9C31.2,17.4,31.4,17.8,31.4,18.4
		z"/>
	<g>
		<path class="st0" d="M21.7,12.1l-1.2,1.5c-0.7-0.7-1.5-1.1-2.4-1.4h0C17.6,12,17.1,12,16.7,12c-2.4,0-4.4,1.6-5.1,3.7
			c0-0.7,0.2-1.4,0.4-2c0.3-0.7,0.7-1.3,1.3-1.8c0.5-0.5,1.2-0.9,1.9-1.2c0.7-0.3,1.5-0.4,2.3-0.4c0.5,0,1.1,0.1,1.6,0.2
			c0.5,0.1,1,0.3,1.5,0.6C20.9,11.4,21.3,11.7,21.7,12.1z"/>
	</g>
</g>
</svg>
