<?xml version="1.0" encoding="utf-8"?>
<!-- Generator: Adobe Illustrator 28.1.0, SVG Export Plug-In . SVG Version: 6.00 Build 0)  -->
<svg version="1.1" id="Layer_1" xmlns="http://www.w3.org/2000/svg" xmlns:xlink="http://www.w3.org/1999/xlink" x="0px" y="0px"
	 viewBox="0 0 16 16" style="enable-background:new 0 0 16 16;" xml:space="preserve">
<style type="text/css">
	.st0{fill:#222F37;}
	.st1{fill:url(#SVGID_1_);}
</style>
<g>
	<path class="st0" d="M6.2,9.4C6,9.6,5,10.2,4.8,10.4c-0.2,0.1-0.5,0.2-0.7,0.3c-0.3,0.1-0.5,0.1-0.8,0.1c-0.4,0-0.8-0.1-1.1-0.2
		c-0.4-0.1-0.7-0.3-0.9-0.6C1,9.7,0.8,9.4,0.6,9.1C0.6,9,0.6,9,0.5,8.9L0.5,8.6c0-0.1,0-0.1,0-0.2c0-0.1,0-0.3,0-0.4l0-0.1
		c0.3-1.1,1.3-1.8,2.4-1.8C2.7,6.2,2.5,6.3,2.3,6.4c0,0,0,0-0.1,0C2.2,6.5,2.1,6.5,2,6.6C1.8,6.8,1.7,7,1.6,7.2
		C1.5,7.5,1.5,7.7,1.5,8c0,0.3,0,0.5,0.1,0.8C1.7,9,1.8,9.2,2,9.3c0.2,0.2,0.4,0.3,0.6,0.4c0.2,0.1,0.5,0.1,0.7,0.1
		c0.3,0,0.5-0.1,0.8-0.2c0.3-0.1,1.5-0.9,1.7-1.1L6.2,9.4z"/>
	<g>
		<path class="st0" d="M5.4,6.1L4.8,6.8C4.5,6.5,4.1,6.2,3.6,6.1h0C3.4,6,3.2,6,2.9,6C1.8,6,0.7,6.8,0.4,7.9c0-0.3,0.1-0.7,0.2-1
			C0.8,6.6,1,6.3,1.2,6c0.3-0.3,0.6-0.5,0.9-0.6c0.3-0.1,0.7-0.2,1.1-0.2c0.3,0,0.5,0,0.8,0.1c0.3,0.1,0.5,0.2,0.7,0.3
			C5,5.7,5.3,5.9,5.4,6.1z"/>
	</g>
	
		<linearGradient id="SVGID_1_" gradientUnits="userSpaceOnUse" x1="6.4701" y1="141.8943" x2="4.696" y2="143.1979" gradientTransform="matrix(1 0 0 1 0 -133.3782)">
		<stop  offset="2.350000e-02" style="stop-color:#101417"/>
		<stop  offset="0.9946" style="stop-color:#252F36"/>
	</linearGradient>
	<path class="st1" d="M6.2,9.4C6,9.6,5,10.2,4.8,10.4c-0.2,0.1-0.5,0.2-0.7,0.3c-0.2,0.1-0.5,0.1-0.7,0.1l0.3-1
		c0.1,0,0.3-0.1,0.4-0.1c0.3-0.1,1.5-0.9,1.7-1.1L6.2,9.4z"/>
	<path class="st0" d="M15.6,9.2c0,0.3-0.1,0.6-0.3,0.9c-0.2,0.2-0.4,0.4-0.8,0.6c-0.3,0.1-0.7,0.2-1.1,0.2c-0.3,0-0.6,0-0.9-0.1
		c-0.1,0-0.2-0.1-0.3-0.1c-0.1-0.1-0.3-0.2-0.5-0.2l-0.1-0.1c-0.2-0.1-0.4-0.2-0.7-0.2c-0.3,0-0.5,0-0.7,0.2l-0.1,0.1
		c-0.2,0.1-0.5,0.2-0.7,0.3c-0.3,0.1-0.5,0.1-0.8,0.1c-0.4,0-0.8-0.1-1.1-0.2c-0.3-0.1-0.7-0.3-0.9-0.6h0C6.5,9.9,6.5,9.9,6.4,9.8
		C6.4,9.7,6.3,9.7,6.3,9.6c0,0,0,0,0,0c0,0,0-0.1-0.1-0.1c0,0,0,0,0-0.1c0,0,0,0,0-0.1C6.1,9.3,6,9.2,6,9.1C6,9.1,6,9,6,9
		c0,0,0-0.1,0-0.1L5.8,8.6c0,0,0,0,0,0c0,0,0,0,0,0c0-0.1,0-0.1,0-0.2c0-0.1,0-0.3,0-0.4l0-0.1c0.3-1.1,1.3-1.8,2.4-1.8
		c-0.2,0-0.4,0.1-0.6,0.2c0,0,0,0-0.1,0c0,0-0.1,0.1-0.1,0.1c0,0-0.1,0.1-0.1,0.1c0,0-0.1,0.1-0.1,0.1C7.2,6.9,7.1,7.1,7,7.2
		C7,7.4,6.9,7.5,6.9,7.6c0,0,0,0.1,0,0.1c0,0.1,0,0.1,0,0.2c0,0.1,0,0.1,0,0.2c0,0,0,0.1,0,0.1C6.9,8.5,7,8.6,7,8.7
		c0.1,0.2,0.2,0.3,0.3,0.5c0,0,0.1,0.1,0.1,0.1C7.6,9.5,7.8,9.6,8,9.7c0.2,0.1,0.5,0.1,0.7,0.1c0.3,0,0.5-0.1,0.8-0.2c0,0,0,0,0.1,0
		c0.2-0.1,0.4-0.2,0.7-0.4c0.4-0.2,0.8-0.3,1.2-0.1c0.1,0,0.2,0.1,0.2,0.1c0.2,0.1,0.4,0.2,0.5,0.2c0.2,0.1,0.4,0.2,0.7,0.3
		c0.2,0.1,0.4,0.1,0.6,0.1c0.3,0,0.5-0.1,0.7-0.2c0.2-0.1,0.2-0.3,0.2-0.5c0-0.2-0.1-0.3-0.2-0.4c-0.1-0.1-0.2-0.2-0.4-0.3
		c-0.2-0.1-0.4-0.1-0.6-0.2c-0.2-0.1-0.4-0.1-0.6-0.2c-0.2-0.1-0.4-0.2-0.6-0.3c-0.2-0.1-0.3-0.3-0.4-0.5c-0.1-0.2-0.2-0.4-0.2-0.7
		c0-0.3,0.1-0.6,0.3-0.8c0.2-0.2,0.4-0.4,0.7-0.5c0.3-0.1,0.8-0.2,1.3-0.2c0.3,0,0.6,0.1,0.9,0.1c0.4,0.1,0.7,0.2,0.9,0.4l-0.6,0.7
		c-0.1-0.1-0.3-0.1-0.4-0.2c-0.2-0.1-0.4-0.1-0.6-0.2c-0.2,0-0.3-0.1-0.5-0.1c-0.2,0-0.4,0-0.6,0.1c-0.1,0.1-0.2,0.2-0.2,0.4
		c0,0.2,0.1,0.3,0.2,0.4c0.1,0.1,0.2,0.2,0.4,0.3c0.2,0.1,0.4,0.1,0.6,0.2c0.2,0.1,0.4,0.1,0.6,0.2C14.7,7.8,14.8,7.9,15,8
		c0.2,0.1,0.3,0.3,0.4,0.5C15.6,8.7,15.6,8.9,15.6,9.2z"/>
	<g>
		<path class="st0" d="M10.8,6.1l-0.6,0.7C9.9,6.5,9.5,6.2,9,6.1h0C8.8,6,8.6,6,8.3,6C7.1,6,6.1,6.8,5.8,7.9c0-0.3,0.1-0.7,0.2-1
			C6.2,6.6,6.4,6.3,6.6,6c0.3-0.3,0.6-0.5,0.9-0.6c0.3-0.1,0.7-0.2,1.1-0.2c0.3,0,0.5,0,0.8,0.1c0.3,0.1,0.5,0.2,0.7,0.3
			C10.4,5.7,10.6,5.9,10.8,6.1z"/>
	</g>
</g>
</svg>
