<?xml version="1.0" encoding="utf-8"?>
<!-- Generator: Adobe Illustrator 26.5.0, SVG Export Plug-In . SVG Version: 6.00 Build 0)  -->
<svg version="1.1" id="Layer_1" xmlns="http://www.w3.org/2000/svg" xmlns:xlink="http://www.w3.org/1999/xlink" x="0px" y="0px"
	 viewBox="0 0 165.93 71.31" style="enable-background:new 0 0 165.93 71.31;" xml:space="preserve">
<style type="text/css">
	.st0{fill:#FFFFFF;}
	.st1{fill:#D42027;}
</style>
<g>
	<g>
		<path class="st0" d="M33.51,24.31c-1.12-0.43-2.33-0.66-3.59-0.66c-0.14,0-0.28,0-0.42,0.01c-0.81,0.03-1.6,0.16-2.36,0.38
			l3.06-19.37l2.73,16.25L33.51,24.31z"/>
		<path class="st0" d="M39.47,36.82c0.32-0.98,0.5-2.03,0.5-3.12c0-0.14,0-0.28-0.01-0.43c-0.04-1.04-0.24-2.03-0.58-2.97l1.91,0.3
			l18.1,2.86L39.47,36.82z"/>
		<g>
			<path class="st0" d="M33.31,43.16l-3.04,19.22L27.38,45.2l-0.31-1.87c0.69,0.21,1.42,0.34,2.17,0.39
				c0.23,0.02,0.46,0.02,0.69,0.02C31.11,43.75,32.25,43.54,33.31,43.16z"/>
			<path class="st0" d="M20,35.29c0.07,0.45,0.17,0.9,0.31,1.33l-0.92-0.15l-18.3-2.89l19.37-3.26c-0.38,1.05-0.58,2.19-0.58,3.38
				C19.87,34.24,19.92,34.77,20,35.29z"/>
		</g>
		<path class="st1" d="M23.46,41.39L5.93,62.3l13.45-25.82L20,35.29c0.07,0.45,0.17,0.9,0.31,1.33
			C20.88,38.51,21.99,40.15,23.46,41.39z"/>
		<path d="M29.23,43.72l-1.85,1.48L5.93,62.3l17.52-20.91c1.04,0.88,2.27,1.55,3.61,1.94C27.76,43.54,28.48,43.67,29.23,43.72z"/>
		<path class="st1" d="M54.93,3.38L41.29,30.61l-1.33,2.67c-0.04-1.04-0.24-2.03-0.58-2.97c-0.64-1.79-1.78-3.34-3.24-4.5
			L54.93,3.38z"/>
		<path d="M54.93,3.38L36.14,25.8c-0.79-0.62-1.67-1.13-2.63-1.49c-1.12-0.43-2.33-0.66-3.59-0.66c-0.14,0-0.28,0-0.42,0.01
			l3.44-2.74L54.93,3.38z"/>
		<path class="st1" d="M8.99,31.67l-2.17,0.39c0.75-11.63,9.99-21.01,21.73-22.3l-0.5,3.3C17.98,13.93,9.71,21.52,8.99,31.67z"/>
		<path class="st1" d="M9.03,35.46c0.33,3.86,1.7,7.76,4.12,11.15l-0.87,1.87C9.15,44.66,7.14,39.99,6.82,35L9.03,35.46z"/>
		<path class="st1" d="M28.65,56.03l0.27,1.89c-3.98-0.55-7.73-2.06-10.98-4.27l1.41-1.18C21.95,54.14,25.05,55.39,28.65,56.03z"/>
		<path class="st1" d="M36.79,57.73c-1.44,0.28-2.94,0.42-4.49,0.42c-0.27,0-0.54-0.01-0.81-0.01l0.41-1.71
			c1.52,0.11,3.13,0.12,4.8,0.02h0.04L36.79,57.73z"/>
		<path class="st1" d="M42.46,12.25l-2.97,2.33c-2.2-0.87-4.56-1.4-6.98-1.53l-0.6-3.43C35.71,9.69,39.29,10.64,42.46,12.25z"/>
		<path class="st1" d="M52.62,21.85l-3.34,0.06c-0.55-0.72-1.15-1.41-1.8-2.07l1.34-2.97C50.29,18.36,51.57,20.03,52.62,21.85z"/>
		<path class="st1" d="M36.53,33.84c0,3.57-2.91,6.46-6.5,6.46c-1.32,0-2.55-0.39-3.58-1.07l0.65-0.42
			c0.86,0.44,1.84,0.69,2.88,0.69c3.37,0,6.11-2.62,6.11-5.85c0-3.23-2.73-5.85-6.11-5.85c-1.36,0-2.61,0.42-3.63,1.14l-0.4-0.15
			c1.12-0.9,2.53-1.43,4.08-1.43C33.62,27.38,36.53,30.27,36.53,33.84z"/>
	</g>
	<rect x="41.09" y="56.91" class="st1" width="123.43" height="0.42"/>
	<g>
		<g>
			<rect x="45.38" y="45.06" class="st0" width="0.94" height="1.01"/>
			<path class="st0" d="M47.97,50.25h-4.36c-0.54,0-0.94-0.13-1.21-0.38c-0.27-0.25-0.4-0.58-0.4-0.97v-1.22h-0.87v1.3
				c0,0.41,0.09,0.77,0.28,1.08c0.19,0.31,0.45,0.56,0.8,0.73s0.75,0.26,1.22,0.26h5.41v-4.83h-0.87V50.25z"/>
			<rect x="43.5" y="45.06" class="st0" width="0.94" height="1.01"/>
			<path class="st0" d="M54.11,47.16c0.27-0.69,0.41-1.43,0.41-2.24v-1.74h-0.87v1.74c0,0.67-0.07,1.26-0.21,1.75
				c-0.81-0.54-1.8-0.99-2.95-1.34v0.86c1.01,0.28,1.86,0.68,2.57,1.21c-0.63,1.01-1.7,1.96-3.21,2.85l0.36,0.79h5.13
				c0.07-0.33,0.1-0.65,0.1-0.96c0-0.53-0.12-1.05-0.35-1.56S54.53,47.55,54.11,47.16z M54.53,50.25h-3.48
				c1.17-0.71,2.05-1.5,2.61-2.37c0.33,0.35,0.56,0.7,0.69,1.06c0.13,0.36,0.2,0.74,0.2,1.14C54.55,50.15,54.55,50.21,54.53,50.25z"
				/>
			<path class="st0" d="M58.89,46.11c-0.53,0-0.99,0.11-1.38,0.35c-0.39,0.23-0.69,0.54-0.89,0.92c-0.2,0.38-0.31,0.79-0.31,1.22
				c0,0.45,0.09,0.86,0.28,1.23s0.47,0.67,0.83,0.89c0.36,0.22,0.8,0.33,1.3,0.33h0.33l0.35-0.79h-0.63c-0.49,0-0.88-0.16-1.15-0.47
				c-0.27-0.31-0.41-0.69-0.41-1.14c0-0.51,0.14-0.93,0.43-1.26c0.29-0.33,0.68-0.5,1.19-0.5c0.27,0,0.56,0.04,0.89,0.11v4.03
				c0,0.48-0.15,0.84-0.44,1.07c-0.29,0.23-0.74,0.39-1.35,0.49l0.36,0.79c0.77-0.13,1.34-0.38,1.73-0.76
				c0.38-0.38,0.58-0.92,0.58-1.64v-4.66c-0.14-0.03-0.23-0.04-0.28-0.05C59.74,46.16,59.26,46.11,58.89,46.11z"/>
			<rect x="65.77" y="44.21" class="st0" width="0.94" height="1.01"/>
			<rect x="67.65" y="44.21" class="st0" width="0.94" height="1.01"/>
			<path class="st0" d="M80.99,43.37v6.88h-1.26c-0.59,0-1.01-0.22-1.24-0.66c0.05-0.17,0.08-0.36,0.08-0.58v-5.63H77.7v5.55
				c0,0.38-0.12,0.7-0.35,0.95c-0.23,0.25-0.53,0.38-0.9,0.38h-0.2c-0.55,0-0.94-0.19-1.19-0.58c0.15-0.32,0.22-0.68,0.22-1.09
				c0-0.44-0.1-0.85-0.31-1.23c-0.21-0.38-0.51-0.68-0.91-0.91c-0.4-0.23-0.87-0.34-1.42-0.34c-0.41,0-0.98,0.07-1.73,0.21v3.93
				h-0.81c-0.57,0-0.97-0.2-1.22-0.61c0.11-0.29,0.17-0.6,0.17-0.94v-2.37c-0.75-0.15-1.34-0.22-1.79-0.22
				c-0.52,0-0.98,0.11-1.37,0.35c-0.39,0.23-0.69,0.53-0.9,0.9c-0.21,0.37-0.31,0.77-0.31,1.19c0,0.37,0.07,0.7,0.22,1
				c0.14,0.3,0.35,0.54,0.62,0.72h-1.61h-0.2c-0.28,0-0.49-0.07-0.63-0.21c-0.14-0.14-0.2-0.37-0.2-0.69v-5.97h-0.88v6.03
				c0,0.49,0.13,0.88,0.39,1.18c0.26,0.3,0.65,0.45,1.17,0.45h0.36h2.91c0.75,0,1.32-0.25,1.72-0.76c0.41,0.51,0.92,0.76,1.55,0.76
				h2.77c0.75,0,1.35-0.26,1.8-0.78c0.41,0.52,0.94,0.78,1.57,0.78h0.36c0.65,0,1.17-0.26,1.56-0.78c0.41,0.52,0.93,0.78,1.56,0.78
				h2.13v-7.67H80.99z M68.18,48.66c0,0.41-0.1,0.76-0.29,1.03s-0.46,0.46-0.8,0.56c-0.46-0.03-0.82-0.19-1.09-0.5
				c-0.27-0.31-0.4-0.67-0.4-1.1c0-0.51,0.14-0.93,0.43-1.26c0.29-0.33,0.68-0.5,1.18-0.5c0.29,0,0.61,0.04,0.97,0.12V48.66z
				 M73.96,49.82c-0.28,0.28-0.68,0.43-1.2,0.43h-0.97v-3.26c0.27-0.06,0.55-0.09,0.86-0.09c0.55,0,0.98,0.16,1.28,0.48
				c0.3,0.32,0.45,0.73,0.45,1.24C74.38,49.13,74.24,49.54,73.96,49.82z"/>
		</g>
		<g>
			<path class="st0" d="M89.89,46.11c-0.53,0-0.99,0.11-1.38,0.35c-0.39,0.23-0.69,0.54-0.89,0.92c-0.2,0.38-0.31,0.79-0.31,1.22
				c0,0.45,0.09,0.86,0.28,1.23s0.47,0.67,0.83,0.89c0.36,0.22,0.8,0.33,1.3,0.33h0.33l0.36-0.79h-0.64c-0.33,0-0.61-0.07-0.84-0.22
				c-0.23-0.15-0.41-0.34-0.53-0.59c-0.12-0.24-0.18-0.51-0.18-0.8c0-0.51,0.14-0.93,0.43-1.26c0.29-0.33,0.68-0.5,1.18-0.5
				c0.28,0,0.58,0.04,0.9,0.12v5.02h-3.3c-0.54,0-0.94-0.13-1.21-0.38c-0.27-0.25-0.4-0.58-0.4-0.97v-2.14h-0.87v2.21
				c0,0.63,0.21,1.13,0.62,1.5c0.41,0.37,0.97,0.56,1.68,0.56h4.35v-6.49l-0.27-0.05C90.7,46.16,90.22,46.11,89.89,46.11z"/>
			<rect x="90.22" y="44.21" class="st0" width="0.94" height="1.01"/>
			<rect x="88.34" y="44.21" class="st0" width="0.94" height="1.01"/>
			<rect x="98.8" y="44.21" class="st0" width="0.94" height="1.01"/>
			<rect x="100.68" y="44.21" class="st0" width="0.94" height="1.01"/>
			<rect x="99.76" y="42.58" class="st0" width="0.89" height="0.97"/>
			<path class="st0" d="M106.62,50.25h-1.26c-0.65,0-1.11-0.22-1.38-0.67c0.05-0.19,0.08-0.38,0.08-0.57v-3.22h-0.87v3.14
				c0,0.39-0.11,0.71-0.33,0.96c-0.22,0.24-0.51,0.37-0.88,0.37c-0.22,0-0.44-0.06-0.65-0.17c-0.21-0.11-0.39-0.27-0.52-0.46
				c-0.13-0.19-0.2-0.39-0.2-0.61v-2.81h-0.87v2.72c0,0.38-0.12,0.7-0.36,0.95c-0.24,0.25-0.54,0.38-0.91,0.38h-0.84v-4.04h-0.88
				v4.04H95.5c0,0,0,0,0,0s0,0,0,0c-0.29,0-0.53-0.07-0.71-0.2c-0.18-0.13-0.33-0.31-0.44-0.55v-3.3h-0.87v4.85
				c0,0.49-0.11,0.86-0.33,1.09c-0.22,0.23-0.57,0.38-1.05,0.44l0.35,0.79c1.27-0.25,1.9-1.03,1.9-2.36v-0.44
				c0.33,0.31,0.71,0.46,1.15,0.46c0,0,0,0,0,0s0,0,0,0h3.14c0.37,0,0.69-0.09,0.97-0.26s0.5-0.4,0.67-0.68
				c0.43,0.62,1.03,0.93,1.78,0.93c0.69,0,1.22-0.28,1.61-0.83c0.21,0.29,0.44,0.5,0.71,0.63c0.27,0.13,0.59,0.2,0.97,0.2h2.13
				v-7.67h-0.87V50.25z"/>
			<rect x="109.19" y="43.37" class="st0" width="0.87" height="7.67"/>
			<rect x="119.83" y="44.21" class="st0" width="0.94" height="1.01"/>
			<path class="st0" d="M124.58,50.25h-1.26c-0.57,0-0.97-0.2-1.21-0.61c0.11-0.27,0.16-0.59,0.16-0.94v-2.37
				c-0.75-0.15-1.34-0.22-1.78-0.22c-0.52,0-0.98,0.11-1.37,0.35c-0.39,0.23-0.69,0.53-0.9,0.9c-0.21,0.37-0.31,0.77-0.31,1.19
				c0,0.37,0.07,0.71,0.22,1c0.14,0.29,0.35,0.53,0.63,0.71h-2.92c-0.55,0-0.95-0.13-1.22-0.38c-0.27-0.25-0.4-0.58-0.4-0.97v-1.22
				h-0.87v1.3c0,0.41,0.09,0.77,0.28,1.08c0.19,0.31,0.46,0.56,0.81,0.73s0.76,0.26,1.23,0.26h4.4c0.75,0,1.32-0.25,1.71-0.76
				c0.41,0.51,0.92,0.76,1.55,0.76h2.13v-7.67h-0.87V50.25z M121.4,48.66c0,0.41-0.09,0.76-0.28,1.03
				c-0.19,0.27-0.46,0.46-0.81,0.56c-0.46-0.03-0.82-0.19-1.09-0.5c-0.27-0.31-0.4-0.67-0.4-1.1c0-0.51,0.14-0.93,0.43-1.26
				c0.29-0.33,0.68-0.5,1.19-0.5c0.29,0,0.61,0.04,0.96,0.12V48.66z"/>
			<path class="st0" d="M137.59,49.5l-0.55-1.38c-0.23-0.61-0.56-1.09-0.99-1.46c-0.43-0.37-0.95-0.55-1.58-0.55
				c-0.35,0-0.66,0.03-0.91,0.11c-0.25,0.07-0.53,0.18-0.85,0.33l0.34,0.73c0.39-0.21,0.79-0.32,1.2-0.32
				c0.47,0,0.86,0.11,1.17,0.34c0.3,0.23,0.56,0.58,0.76,1.05l0.56,1.36l0.03,0.07c-0.81,0.31-1.72,0.47-2.71,0.47h-1.99h-1.01
				v-3.92c-0.14-0.03-0.23-0.04-0.28-0.05c-0.59-0.11-1.07-0.17-1.44-0.17c-0.53,0-0.99,0.11-1.38,0.35
				c-0.39,0.23-0.69,0.54-0.89,0.92c-0.2,0.38-0.31,0.79-0.31,1.22c0,0.45,0.09,0.86,0.28,1.23c0.19,0.37,0.47,0.67,0.83,0.89
				c0.36,0.22,0.8,0.33,1.3,0.33h0.33l0.35-0.79h-0.63c-0.49,0-0.88-0.16-1.15-0.47c-0.27-0.31-0.41-0.69-0.41-1.14
				c0-0.51,0.14-0.93,0.43-1.26c0.29-0.33,0.68-0.5,1.19-0.5c0.27,0,0.56,0.04,0.89,0.11v4.03c0,0.48-0.15,0.84-0.44,1.07
				s-0.74,0.39-1.35,0.49l0.36,0.79c0.75-0.13,1.32-0.38,1.71-0.75c0.39-0.37,0.58-0.9,0.59-1.6h1.01h1.99
				c0.5,0,1.02-0.06,1.56-0.19c0.54-0.12,1.03-0.3,1.47-0.53c0.37,0.44,0.83,0.68,1.39,0.71l0.34-0.77
				C138.18,50.22,137.77,49.96,137.59,49.5z"/>
			<rect x="134.11" y="52.17" class="st0" width="0.94" height="1.01"/>
			<rect x="142.21" y="44.21" class="st0" width="0.94" height="1.01"/>
			<rect x="144.09" y="44.21" class="st0" width="0.94" height="1.01"/>
			<path class="st0" d="M149.9,46.61h-2.11l3.08-3.23h-1.1l-2.92,3.23l0.35,0.79h2.59c0.63,0,1.08,0.13,1.37,0.4
				c0.29,0.27,0.43,0.63,0.43,1.1c0,0.41-0.1,0.86-0.31,1.35h-4.92h-0.2c-0.29,0-0.5-0.07-0.64-0.21c-0.14-0.14-0.2-0.37-0.2-0.69
				l0.01-3.04l-0.49-0.08c-0.5-0.08-0.91-0.12-1.23-0.12c-0.53,0-0.99,0.11-1.38,0.35c-0.39,0.23-0.69,0.54-0.89,0.92
				c-0.2,0.38-0.31,0.79-0.31,1.22c0,0.45,0.1,0.86,0.29,1.23c0.19,0.37,0.47,0.67,0.84,0.89c0.36,0.22,0.79,0.33,1.29,0.33h0.42
				l0.35-0.79h-0.72c-0.49,0-0.88-0.16-1.15-0.47c-0.27-0.31-0.41-0.69-0.41-1.14c0-0.51,0.14-0.93,0.43-1.26
				c0.29-0.33,0.68-0.5,1.19-0.5c0.25,0,0.54,0.04,0.89,0.12v2.39c0,0.49,0.13,0.89,0.38,1.19c0.25,0.3,0.64,0.45,1.16,0.45h0.37
				h5.5c0.41-0.86,0.62-1.59,0.62-2.18c0-0.69-0.22-1.24-0.65-1.65C151.41,46.81,150.76,46.61,149.9,46.61z"/>
			<rect x="161.09" y="44.21" class="st0" width="0.94" height="1.01"/>
			<rect x="160.17" y="42.58" class="st0" width="0.89" height="0.97"/>
			<path class="st0" d="M163.57,45.79v4.46h-0.97c-0.25,0-0.5-0.05-0.74-0.16c-0.24-0.11-0.44-0.25-0.59-0.43
				c-0.15-0.18-0.24-0.38-0.25-0.59v-2.86h-0.87v2.72c0,0.38-0.12,0.7-0.36,0.95c-0.24,0.25-0.54,0.38-0.91,0.38h-0.84v-4.04h-0.88
				v4.04h-1.26c0,0,0,0,0,0s0,0,0,0c-0.29,0-0.53-0.07-0.71-0.2c-0.18-0.13-0.33-0.31-0.44-0.55v-3.3h-0.87v4.85
				c0,0.49-0.11,0.86-0.33,1.09c-0.22,0.23-0.57,0.38-1.05,0.44l0.35,0.79c1.27-0.25,1.9-1.03,1.9-2.36v-0.44
				c0.33,0.31,0.71,0.46,1.15,0.46c0,0,0,0,0,0s0,0,0,0h3.14c0.37,0,0.69-0.09,0.97-0.26c0.28-0.17,0.5-0.39,0.67-0.67
				c0.21,0.31,0.49,0.54,0.82,0.69c0.33,0.15,0.7,0.23,1.11,0.23h1.83v-5.25H163.57z"/>
			<rect x="159.21" y="44.21" class="st0" width="0.94" height="1.01"/>
		</g>
	</g>
	<g>
		<path class="st0" d="M48.75,64.54c-0.72,0.13-0.77,0.23-0.77,0.91v0.96c0,0.43,0.01,0.81,0.11,1.1c-0.73,0.15-1.82,0.42-2.71,0.42
			c-2.64,0-4.31-1.52-4.31-3.94c0-2.65,2.16-3.95,4.52-3.95c1.17,0,1.99,0.23,2.28,0.24c0.02,0.38,0.09,1.23,0.17,1.73l-0.17,0.05
			c-0.24-0.86-0.55-1.38-1.42-1.61c-0.31-0.08-0.71-0.14-1.18-0.14c-2,0-3.15,1.31-3.15,3.54c0,1.82,0.9,3.81,3.42,3.81
			c0.42,0,0.89-0.06,1.15-0.2c0.28-0.15,0.42-0.31,0.42-0.92v-0.99c0-0.82-0.06-0.91-1.14-1.02v-0.16h2.79V64.54z"/>
		<path class="st0" d="M52.93,62.37c1.66,0,2.86,1.15,2.86,2.74c0,1.79-1.4,2.79-2.82,2.79c-1.73,0-2.88-1.22-2.88-2.75
			C50.08,63.45,51.51,62.37,52.93,62.37z M52.8,62.62c-1.03,0-1.81,0.79-1.81,2.35c0,1.57,0.81,2.67,2.09,2.67
			c1,0,1.78-0.64,1.78-2.4C54.87,63.8,54.07,62.62,52.8,62.62z"/>
		<path class="st0" d="M61.45,66.33c-0.07,0.36-0.29,1.2-0.37,1.43h-4.3v-0.14c0.9-0.13,0.96-0.22,0.96-0.96v-3.1
			c0-0.74-0.1-0.79-0.84-0.91v-0.14h2.53v0.14c-0.78,0.14-0.86,0.22-0.86,0.91v3.2c0,0.41,0.09,0.57,0.28,0.64
			c0.16,0.05,0.4,0.06,0.77,0.06c0.72,0,0.93-0.07,1.16-0.34c0.15-0.16,0.32-0.41,0.49-0.81L61.45,66.33z"/>
		<path class="st0" d="M66.37,63.81c-0.09-0.28-0.19-0.57-0.33-0.74c-0.13-0.19-0.33-0.28-0.88-0.28h-0.94
			c-0.26,0-0.28,0.02-0.28,0.32v1.85h1.15c0.7,0,0.76-0.12,0.89-0.73h0.16v1.74h-0.16c-0.15-0.6-0.21-0.71-0.89-0.71h-1.15v1.44
			c0,0.68,0.04,0.77,0.93,0.92v0.14h-2.6v-0.14c0.79-0.13,0.84-0.2,0.84-0.92v-3.15c0-0.67-0.07-0.75-0.84-0.91v-0.14h2.99
			c0.42,0,0.84,0,1.2-0.02c0.01,0.22,0.02,0.78,0.07,1.3L66.37,63.81z"/>
		<path class="st0" d="M75.88,66.11c-0.06,0.38-0.28,1.3-0.38,1.65h-5.54v-0.14c1.07-0.14,1.15-0.22,1.15-1.17v-4.85
			c0-1-0.04-1.07-0.99-1.24v-0.14h3.46c1.05,0,1.42,0,1.65-0.02c0,0.41,0.05,1.24,0.09,1.58l-0.17,0.02
			c-0.09-0.3-0.26-0.72-0.38-0.92c-0.23-0.33-0.38-0.35-1.1-0.35h-1.33c-0.33,0-0.35,0.03-0.35,0.36v2.69h1.51
			c0.83,0,0.94-0.15,1.09-0.93h0.16v2.18h-0.16c-0.21-0.81-0.29-0.93-1.06-0.93h-1.54v2.75c0,0.78,0.33,0.8,1.01,0.8h1.21
			c0.59,0,0.76-0.1,1.06-0.55c0.18-0.26,0.33-0.53,0.46-0.84L75.88,66.11z"/>
		<path class="st0" d="M80.23,67.76v-0.14l0.19-0.03c0.35-0.06,0.5-0.17,0.35-0.51l-0.59-1.32h-1.78l-0.43,1.13
			c-0.19,0.55,0.01,0.63,0.45,0.71l0.19,0.03v0.14h-2.04v-0.14c0.54-0.1,0.74-0.19,1.1-1.02l1.77-4.19l0.16-0.03l1.95,4.5
			c0.23,0.55,0.38,0.65,0.93,0.74v0.14H80.23z M79.28,63.52l-0.76,1.93h1.56L79.28,63.52z"/>
		<path class="st0" d="M86.17,63.82c-0.26-0.73-0.61-1.21-1.4-1.21c-0.56,0-0.9,0.39-0.9,0.88c0,0.63,0.51,0.89,1.05,1.15l0.2,0.1
			c0.65,0.3,1.4,0.74,1.4,1.57c0,0.96-0.92,1.58-1.97,1.58c-0.65,0-1.2-0.2-1.39-0.28c-0.06-0.19-0.17-0.72-0.26-1.32l0.17-0.03
			c0.21,0.77,0.76,1.39,1.67,1.39c0.54,0,0.96-0.31,0.98-0.95c0.01-0.65-0.46-0.95-0.96-1.21l-0.32-0.16
			c-0.72-0.37-1.28-0.78-1.28-1.54c0-0.81,0.71-1.42,1.84-1.42c0.5,0,0.95,0.1,1.17,0.15c0.04,0.34,0.09,0.86,0.17,1.25L86.17,63.82
			z"/>
		<path class="st0" d="M92.45,63.81c-0.06-0.22-0.13-0.43-0.24-0.63c-0.2-0.34-0.42-0.41-0.95-0.41h-0.78v3.9
			c0,0.71,0.06,0.81,0.92,0.94v0.14h-2.65v-0.14c0.84-0.12,0.9-0.24,0.9-0.93v-3.91h-0.81c-0.55,0-0.72,0.15-0.89,0.49
			c-0.11,0.2-0.16,0.34-0.23,0.55h-0.18c0.04-0.38,0.1-1.09,0.11-1.5h0.15c0.13,0.17,0.24,0.2,0.49,0.2h3.74
			c0.23,0,0.33-0.05,0.45-0.2h0.13c0,0.34,0.02,0.99,0.04,1.47L92.45,63.81z"/>
		<path class="st0" d="M103.22,66c-0.11,0.38-0.46,1.37-0.65,1.66c-0.32,0.08-1.2,0.27-2.03,0.27c-3,0-4.4-1.92-4.4-3.92
			c0-2.43,1.84-3.96,4.6-3.96c0.98,0,1.72,0.2,2.11,0.24c0.06,0.53,0.11,1.17,0.18,1.65l-0.2,0.03c-0.22-0.71-0.4-1.22-1.09-1.46
			c-0.39-0.14-0.93-0.2-1.38-0.2c-2.16,0-3.19,1.65-3.19,3.48c0,2.31,1.22,3.87,3.4,3.87c1.37,0,1.92-0.74,2.43-1.72L103.22,66z"/>
		<path class="st0" d="M107.27,62.37c1.66,0,2.86,1.15,2.86,2.74c0,1.79-1.4,2.79-2.82,2.79c-1.73,0-2.88-1.22-2.88-2.75
			C104.42,63.45,105.85,62.37,107.27,62.37z M107.14,62.62c-1.03,0-1.81,0.79-1.81,2.35c0,1.57,0.81,2.67,2.09,2.67
			c1,0,1.78-0.64,1.78-2.4C109.21,63.8,108.41,62.62,107.14,62.62z"/>
		<path class="st0" d="M117.39,62.65c-0.66,0.1-0.83,0.27-0.86,0.7c-0.01,0.24-0.04,0.63-0.04,1.4v3.06h-0.2l-3.86-4.25v1.95
			c0,0.77,0.02,1.06,0.05,1.33c0.02,0.52,0.2,0.64,0.93,0.77v0.14h-2.2v-0.14c0.6-0.12,0.78-0.2,0.82-0.75
			c0.02-0.29,0.05-0.58,0.05-1.35v-1.98c0-0.19,0-0.31-0.11-0.43c-0.23-0.27-0.5-0.39-0.9-0.45v-0.14h1.47l3.61,3.92v-1.68
			c0-0.78-0.01-1.07-0.04-1.37c-0.04-0.48-0.13-0.63-0.9-0.73v-0.14h2.17V62.65z"/>
		<path class="st0" d="M123.24,63.81c-0.06-0.22-0.13-0.43-0.24-0.63c-0.19-0.34-0.42-0.41-0.95-0.41h-0.78v3.9
			c0,0.71,0.06,0.81,0.92,0.94v0.14h-2.65v-0.14c0.84-0.12,0.9-0.24,0.9-0.93v-3.91h-0.81c-0.55,0-0.72,0.15-0.89,0.49
			c-0.11,0.2-0.16,0.34-0.23,0.55h-0.18c0.04-0.38,0.1-1.09,0.11-1.5h0.15c0.13,0.17,0.24,0.2,0.49,0.2h3.74
			c0.23,0,0.33-0.05,0.45-0.2h0.13c0,0.34,0.02,0.99,0.04,1.47L123.24,63.81z"/>
		<path class="st0" d="M129.77,67.82l-0.33-0.02c-0.73-0.03-1.07-0.17-1.42-0.62c-0.28-0.36-0.73-1.04-0.9-1.32
			c-0.23-0.36-0.33-0.44-0.83-0.44H126v1.28c0,0.7,0.06,0.79,0.92,0.92v0.14h-2.56v-0.14c0.81-0.14,0.84-0.21,0.84-0.92v-3.12
			c0-0.73-0.06-0.79-0.84-0.93v-0.14h2.42c0.59,0,1.04,0.07,1.38,0.28c0.33,0.2,0.59,0.55,0.59,1.06c0,0.79-0.62,1.2-1.12,1.39
			c0.13,0.22,0.53,0.79,0.78,1.15c0.29,0.42,0.46,0.64,0.7,0.87c0.26,0.26,0.49,0.37,0.72,0.43L129.77,67.82z M126.47,65.18
			c0.32,0,0.66-0.02,0.89-0.16c0.31-0.17,0.48-0.58,0.48-1.03c0-0.86-0.6-1.24-1.27-1.24c-0.53,0-0.57,0.13-0.57,0.51v1.93H126.47z"
			/>
		<path class="st0" d="M133.41,67.76v-0.14l0.19-0.03c0.35-0.06,0.5-0.17,0.35-0.51l-0.59-1.32h-1.78l-0.43,1.13
			c-0.19,0.55,0.01,0.63,0.45,0.71l0.19,0.03v0.14h-2.04v-0.14c0.54-0.1,0.74-0.19,1.1-1.02l1.77-4.19l0.16-0.03l1.95,4.5
			c0.23,0.55,0.38,0.65,0.93,0.74v0.14H133.41z M132.46,63.52l-0.76,1.93h1.56L132.46,63.52z"/>
		<path class="st0" d="M141.37,66.4c-0.1,0.34-0.35,1.04-0.48,1.3c-0.27,0.06-0.98,0.2-1.56,0.2c-2.08,0-3.13-1.28-3.13-2.72
			c0-1.78,1.47-2.81,3.27-2.81c0.67,0,1.37,0.13,1.59,0.16c0.04,0.36,0.1,0.94,0.16,1.31l-0.16,0.03c-0.31-1.08-1.11-1.26-1.87-1.26
			c-1.37,0-2.08,1.11-2.08,2.44c0,1.52,0.83,2.61,2.25,2.61c0.92,0,1.4-0.45,1.84-1.31L141.37,66.4z"/>
		<path class="st0" d="M147.33,63.81c-0.06-0.22-0.13-0.43-0.24-0.63c-0.19-0.34-0.42-0.41-0.95-0.41h-0.78v3.9
			c0,0.71,0.06,0.81,0.92,0.94v0.14h-2.65v-0.14c0.84-0.12,0.9-0.24,0.9-0.93v-3.91h-0.81c-0.55,0-0.72,0.15-0.89,0.49
			c-0.11,0.2-0.16,0.34-0.23,0.55h-0.18c0.04-0.38,0.1-1.09,0.11-1.5h0.15c0.13,0.17,0.24,0.2,0.49,0.2h3.74
			c0.23,0,0.33-0.05,0.45-0.2h0.13c0,0.34,0.02,0.99,0.04,1.47L147.33,63.81z"/>
		<path class="st0" d="M148.44,67.76v-0.14c0.76-0.13,0.84-0.19,0.84-0.91v-3.16c0-0.7-0.07-0.78-0.84-0.91v-0.14h2.53v0.14
			c-0.79,0.13-0.85,0.19-0.85,0.91v3.16c0,0.7,0.06,0.78,0.85,0.91v0.14H148.44z"/>
		<path class="st0" d="M158.22,62.65c-0.66,0.1-0.83,0.27-0.86,0.7c-0.01,0.24-0.04,0.63-0.04,1.4v3.06h-0.2l-3.86-4.25v1.95
			c0,0.77,0.02,1.06,0.05,1.33c0.02,0.52,0.2,0.64,0.93,0.77v0.14h-2.2v-0.14c0.6-0.12,0.78-0.2,0.82-0.75
			c0.02-0.29,0.05-0.58,0.05-1.35v-1.98c0-0.19,0-0.31-0.11-0.43c-0.23-0.27-0.5-0.39-0.9-0.45v-0.14h1.47l3.61,3.92v-1.68
			c0-0.78-0.01-1.07-0.04-1.37c-0.04-0.48-0.13-0.63-0.9-0.73v-0.14h2.17V62.65z"/>
		<path class="st0" d="M164.85,65.39c-0.56,0.14-0.61,0.2-0.61,0.71v0.74c0,0.29,0.04,0.58,0.07,0.74
			c-0.56,0.14-1.26,0.31-1.92,0.31c-1.91,0-3.13-1.06-3.13-2.7c0-1.88,1.54-2.82,3.3-2.82c0.67,0,1.32,0.14,1.61,0.19
			c0.02,0.3,0.07,0.87,0.13,1.36l-0.18,0.03c-0.24-0.87-0.76-1.32-1.89-1.32c-1.25,0-2.05,0.88-2.05,2.41
			c0,1.29,0.71,2.62,2.33,2.62c0.57,0,0.95-0.21,0.95-0.75v-0.78c0-0.56-0.09-0.64-0.88-0.74v-0.14h2.26V65.39z"/>
	</g>
</g>
</svg>
